<svg width="20" height="20" viewBox="0 0 20 20" fill="none" xmlns="http://www.w3.org/2000/svg">
<g id="24 / symbols / facebook">
<path id="Subtract" fill-rule="evenodd" clip-rule="evenodd" d="M16.666 1.6665H3.33268C2.41221 1.6665 1.66602 2.4127 1.66602 3.33317V16.6665C1.66602 17.587 2.41221 18.3332 3.33268 18.3332H16.666C17.5865 18.3332 18.3327 17.587 18.3327 16.6665V3.33317C18.3327 2.4127 17.5865 1.6665 16.666 1.6665ZM9.27734 10.0037H10.8331V15H12.4998V10.0037H14.1518V8.337H12.4998V7.5C12.4998 7.03976 12.8729 6.66667 13.3331 6.66667H14.1665V5H13.3331C11.9524 5 10.8331 6.11929 10.8331 7.5V8.337H9.27734V10.0037Z" fill="white"/>
</g>
</svg>
