<svg width="208" height="208" viewBox="0 0 208 208" fill="none" xmlns="http://www.w3.org/2000/svg">
<path opacity="0.85" d="M81.56 6C113.853 6 138.867 14.68 156.6 32.04C174.333 49.2133 183.2 73.5733 183.2 105.12C183.2 136.293 174.427 160.093 156.88 176.52C139.52 192.947 114.32 201.16 81.28 201.16H25V6H81.56ZM77.92 168.96C102.56 168.96 120.387 163.827 131.4 153.56C142.413 143.293 147.92 126.68 147.92 103.72C147.92 81.1333 142.507 64.6133 131.68 54.16C121.04 43.52 104.147 38.2 81 38.2H60V168.96H77.92Z" fill="white"/>
</svg>
