<svg width="208" height="208" viewBox="0 0 208 208" fill="none" xmlns="http://www.w3.org/2000/svg">
<path opacity="0.85" d="M137.12 201.16L90.36 120.24H65.72V201.16H31V6H94.84C117.427 6 134.133 10.8533 144.96 20.56C155.787 30.2667 161.2 44.1733 161.2 62.28C161.2 76.0933 158.12 87.5733 151.96 96.72C145.8 105.68 136.84 112.12 125.08 116.04L177.72 201.16H137.12ZM91.2 88.04C102.96 88.04 111.733 86.1733 117.52 82.44C123.307 78.52 126.2 71.9867 126.2 62.84C126.2 53.6933 123.307 47.3467 117.52 43.8C111.92 40.0667 103.147 38.2 91.2 38.2H65.72V88.04H91.2Z" fill="white"/>
</svg>
