<svg width="32" height="32" viewBox="0 0 32 32" fill="none" xmlns="http://www.w3.org/2000/svg">
  <path d="M12.06 11.4497C12.06 10.7125 11.5396 10.1056 10.5863 10.1056C10.5808 10.1056 10.5753 10.106 10.5698 10.1065C10.5642 10.107 10.5586 10.1075 10.5529 10.1075H1.12031C3.46671 4.18662 9.24472 0 16.0004 0C24.8367 0 32 7.16327 32 15.9996C32 16.8991 31.9248 17.7818 31.7819 18.6408H24.5324L25.3425 15.6097C25.5373 14.8732 25.7327 14.0498 25.7327 13.3991C25.7327 11.298 24.454 10.0187 22.374 10.0187C20.619 10.0187 19.2321 10.8859 18.2139 12.1208C17.7583 10.8428 16.7185 10.0187 15.1368 10.0187C13.8367 10.0187 12.8834 10.7125 12.06 11.4497Z" fill="currentColor" />
  <path d="M20.9222 19.8128C20.5664 21.1326 21.1004 21.9249 22.1338 21.9767V21.98H30.8437C28.4746 27.8539 22.7219 32 16 32C7.16362 32 0 24.8361 0 15.9998C0 15.1307 0.0703173 14.2782 0.203499 13.4467H8.23329L6.53433 19.8128C6.16589 21.178 6.75079 21.98 7.8561 21.98C8.72292 21.98 9.41637 21.3731 9.69796 20.3115L11.0414 15.3281C11.4096 13.9408 12.2112 13.0099 13.5116 13.0099C14.5298 13.0099 15.0499 13.5079 15.0499 14.4395C15.0499 14.7218 14.985 15.1547 14.8982 15.4794L13.7281 19.8128C13.3596 21.178 13.9449 21.98 15.0499 21.98C15.9167 21.98 16.6098 21.3731 16.8917 20.3115L18.2352 15.3281C18.6033 13.9408 19.4053 13.0099 20.7054 13.0099C21.7235 13.0099 22.2436 13.5079 22.2436 14.4395C22.2436 14.7218 22.1788 15.1547 22.092 15.4794L20.9222 19.8128Z" fill="currentColor" />
</svg>
