<svg width="45" height="45" viewBox="0 0 45 45" fill="none" xmlns="http://www.w3.org/2000/svg">
  <path d="M22.5509 0.00127251C27.2309 -0.0506453 31.8978 1.48815 35.6808 4.24251C39.715 7.15848 42.75 11.4444 44.1209 16.2425C45.6698 21.5831 45.1629 27.5033 42.671 32.4795C40.3853 37.1295 36.4413 40.9342 31.7217 43.0436C26.9935 45.1971 21.51 45.5657 16.5151 44.1843C11.0048 42.6563 6.14999 38.9171 3.24772 33.9774C1.73505 31.4538 0.759672 28.6224 0.325648 25.7123C0.0765728 24.6584 -0.0201771 23.5787 0.00344789 22.4946C0.613647 22.4968 1.22587 22.4946 1.83585 22.486C1.90897 26.818 3.23872 31.1369 5.80574 34.639C8.77889 38.7661 13.303 41.7511 18.2782 42.7856C22.7185 43.7337 27.466 43.1649 31.5455 41.1626C36.3294 38.8523 40.1533 34.6239 41.9706 29.6175C43.4916 25.5011 43.6462 20.8955 42.4024 16.6843C40.9932 11.7943 37.6979 7.49708 33.3756 4.83956C30.1426 2.83057 26.3489 1.75113 22.5466 1.75542C22.5466 1.17146 22.5466 0.585235 22.5509 0.00127251Z" fill="currentColor" />
  <path d="M18.2443 5.43436C19.6535 5.05626 21.1144 4.95378 22.5616 4.8653C22.566 5.47522 22.5666 6.08514 22.5636 6.69506C19.1009 6.64563 15.6561 7.85035 12.9226 9.9774C9.79062 12.3891 7.60362 16.0141 6.98262 19.9321C6.43047 23.0959 6.93762 26.4214 8.31664 29.3136C9.99222 32.835 13.0083 35.6885 16.6151 37.1519C19.9836 38.5399 23.8396 38.6868 27.3066 37.5765C30.3959 36.5959 33.1604 34.6282 35.1155 32.0355C37.1906 29.3179 38.3206 25.9105 38.3312 22.4903C38.9198 22.4968 39.5084 22.4946 40.0949 22.4946C40.0992 26.2792 38.8489 30.0441 36.5719 33.0614C34.0744 36.4171 30.3394 38.8266 26.2518 39.6949C22.4883 40.5301 18.4583 40.0442 14.9847 38.376C12.0147 36.9514 9.45312 34.6756 7.70442 31.875C5.80835 28.8825 4.8611 25.2986 5.01162 21.7576C5.1599 18.3039 6.3371 14.8976 8.38662 12.1133C10.7644 8.82595 14.3174 6.42148 18.2443 5.43436Z" fill="currentColor" />
  <path d="M13.1875 13.1389C15.5999 10.7749 18.9025 9.28551 22.2957 9.29431C25.5546 9.1758 28.8207 10.3911 31.2644 12.5484C34.2344 15.1326 35.9131 19.1068 35.7349 23.0449C35.6168 26.3466 34.1838 29.5299 31.8917 31.8876C31.4642 31.4716 31.0433 31.0524 30.6223 30.6289C33.0626 28.157 34.3557 24.5642 33.8848 21.1031C33.5324 18.0427 31.8719 15.1635 29.4037 13.3337C27.32 11.7581 24.6841 10.9286 22.0761 11.0622C19.211 11.1284 16.4678 12.4376 14.4205 14.415C14.0144 13.9838 13.5999 13.5615 13.1875 13.1389Z" fill="currentColor" />
  <path d="M19.5427 14.3999C20.1185 14.4019 20.694 14.4019 21.2678 14.4042C21.2697 15.3071 21.2712 16.21 21.2721 17.1129C21.882 17.1109 22.49 17.1109 23.1002 17.1109C23.0979 16.208 23.1022 15.3051 23.1065 14.4022C23.6822 14.4044 24.2579 14.4052 24.8336 14.4044C24.8381 15.303 24.8424 16.2019 24.8401 17.1026C25.8841 17.1522 27.2053 16.8807 27.9635 17.8023C28.5222 18.714 28.389 19.8648 28.3031 20.8842C28.2428 21.6291 27.5469 22.0072 26.9691 22.3305C27.6585 22.6989 28.3933 23.2528 28.4061 24.1191C28.3996 25.13 28.6811 26.3649 27.8949 27.1645C27.0721 27.9166 25.8778 27.8906 24.8336 27.9094C24.8424 28.722 24.8401 29.5324 24.8401 30.3427C24.2601 30.3382 23.6823 30.3362 23.1022 30.3382C23.1045 29.5193 23.0979 28.7026 23.1002 27.8836C22.49 27.8879 21.88 27.89 21.2698 27.8857C21.2741 28.7026 21.2678 29.5193 21.2698 30.3362C20.692 30.3339 20.112 30.3362 19.5342 30.3405C19.5342 29.5258 19.5276 28.7112 19.5362 27.8965C18.5781 27.8879 17.6208 27.8865 16.6641 27.8922C16.6706 24.2975 16.6641 20.7048 16.6683 17.112C17.605 17.1078 18.5417 17.1055 19.4808 17.1143C19.5258 16.2091 19.5389 15.3039 19.5432 14.3988L19.5427 14.3999ZM19.1796 18.8827C19.1752 19.7296 19.176 20.578 19.1818 21.4278C20.9412 21.4192 22.7005 21.4199 24.4599 21.43C24.9218 21.4215 25.4136 21.4472 25.8324 21.2102C26.101 20.6628 26.0493 20.0163 25.9656 19.4301C25.914 18.8976 25.2953 18.8955 24.8914 18.8804C22.9881 18.8784 21.0826 18.887 19.1793 18.8827H19.1796ZM19.1793 23.1941C19.173 24.1121 19.1738 25.03 19.1816 25.948C21.0826 25.9309 22.9841 25.9717 24.8851 25.9329C25.2953 25.8898 25.9201 25.9157 25.9977 25.3835C26.0772 24.739 26.2002 23.9826 25.8195 23.4092C25.3275 23.1808 24.7713 23.2025 24.2427 23.1894C22.5543 23.1969 20.8666 23.1988 19.1796 23.195" fill="currentColor" />
</svg>
