<svg width="41" height="41" viewBox="0 0 41 41" fill="none" xmlns="http://www.w3.org/2000/svg">
  <path fill-rule="evenodd" clip-rule="evenodd" d="M14.7709 38.4063C18.611 41.1103 23.7319 41.6371 28.3239 40.2841C31.7121 39.3075 34.799 37.3547 37.0561 34.4998C41.8748 28.3404 40.8961 19.8518 37.8092 14.2175C33.2919 5.95481 23.2776 3.40133 17.9316 2.04833C16.717 1.70337 15.4568 1.48936 13.775 1.20375C13.27 1.118 12.727 1.02579 12.1359 0.921651L12.0225 0.902778C5.77963 -0.136148 3.16665 -0.570999 1.59476 1.22218C-1.87056 5.05322 4.30527 13.1655 5.05844 14.0675C6.35082 15.7324 9.10489 17.9732 10.5425 19.1429C11.1157 19.6093 11.4796 19.9054 11.4581 19.9268C9.44697 22.813 8.66189 26.3787 9.27488 29.8426C9.87717 33.3748 11.8349 36.378 14.7709 38.4063ZM14.9984 22.4811C15.9021 21.1289 17.1821 20.3028 18.6126 19.8518C20.4949 19.3261 22.6031 19.5512 24.3349 20.8276C26.594 22.4048 27.1959 25.4085 25.615 27.6635C24.4854 29.2408 22.3018 29.5413 20.6454 28.4896C19.5917 27.8135 18.1608 28.1891 17.5585 29.3158C16.9562 30.2932 17.408 31.5708 18.3867 32.2481C21.9254 34.5765 26.7445 33.6753 29.1537 30.1448C32.0901 25.9378 31.036 20.1539 26.8195 17.2245C23.2054 14.7452 18.5371 14.6702 14.9234 16.7735C13.1916 15.7969 10.2551 13.7702 8.44785 11.5152C7.60626 10.3976 6.85117 9.21729 6.18916 7.98472C5.36096 6.40499 6.71642 4.52719 8.44785 4.82772L11.3843 5.27872C11.9893 5.38843 12.5363 5.48479 13.0383 5.57323C14.598 5.84801 15.7232 6.04625 16.8057 6.33037C16.8495 6.34146 16.8936 6.35262 16.9379 6.36384C21.9978 7.6444 30.3897 9.76824 33.9728 16.3212C35.6296 19.4012 37.7374 26.5372 33.5964 31.7955C29.6809 36.7532 22.0767 38.1808 17.2579 34.8754C15.2998 33.5232 14.0198 31.4953 13.5679 29.1665C13.1161 26.8377 13.6434 24.4339 14.9984 22.4811Z" fill="currentColor" />
</svg>
