<svg width="0.5em" height="0.5em" viewBox="0 0 36 36" fill="none" xmlns="http://www.w3.org/2000/svg">
<text>%</text>
<circle cx="18" cy="18" r="18" fill="#F971A2"/>
<path d="M23.6568 10.412C24.2108 9.30385 23.405 8 22.1662 8C21.535 8 20.958 8.35667 20.6757 8.92131L12.3435 25.588C11.7895 26.6961 12.5952 28 13.834 28C14.4652 28 15.0422 27.6433 15.3245 27.0787L23.6568 10.412Z" fill="white"/>
<path d="M11.3329 16.3333C9.49219 16.3333 8 14.8409 8 13C8 11.1591 9.49219 9.66667 11.3329 9.66667C13.1736 9.66667 14.6658 11.1591 14.6658 13C14.6658 14.8409 13.1736 16.3333 11.3329 16.3333Z" fill="white"/>
<path d="M24.6671 26.3338C22.8264 26.3338 21.3342 24.8414 21.3342 23.0005C21.3342 21.1595 22.8264 19.6672 24.6671 19.6672C26.5078 19.6672 28 21.1595 28 23.0005C28 24.8414 26.5078 26.3338 24.6671 26.3338Z" fill="white"/>
</svg>
