<svg width="20" height="20" viewBox="0 0 20 20" fill="none" xmlns="http://www.w3.org/2000/svg">
  <g id="24 / symbols / twitter">
    <path id="icon" fill-rule="evenodd" clip-rule="evenodd" d="M17.599 3.75698L18.7779 3.89466L18.248 4.95675C17.9895 5.47469 17.7308 5.99262 17.4719 6.51056C17.4412 6.62026 17.3872 6.71643 17.3074 6.84164C17.274 6.89396 17.1601 7.06038 17.1548 7.06837C17.1247 7.11348 17.1025 7.14906 17.0864 7.17757V9.16802C17.0864 14.2613 12.1573 17.4979 7.5023 17.4979C6.54977 17.4979 5.82607 17.4523 4.99739 17.2715C3.63364 16.9739 2.61874 16.3823 2.15433 15.3484L1.67619 14.284L2.83817 14.1771C3.88935 14.0804 4.80076 13.8802 5.50067 13.612C3.57916 13.303 2.50235 12.4591 2.50235 10.8742V10.0408H3.33568C3.51878 10.0408 3.68387 10.026 3.83147 9.9987C2.38935 9.13645 1.66703 7.75324 1.66703 5.83468C1.66688 5.75291 1.66688 5.75291 1.66638 5.66548C1.66097 4.69844 1.71291 4.18172 1.97764 3.52224C2.1473 3.09959 2.39254 2.70832 2.7226 2.3498L3.35144 1.66675L3.96283 2.36547C5.97763 4.66809 7.96931 6.06504 10.0028 6.23401C10.0115 4.10929 11.6173 2.50135 13.753 2.50135C14.7486 2.50135 15.6517 2.87926 16.3614 3.56069C16.7499 3.64051 17.1624 3.70599 17.599 3.75698ZM15.7566 5.13513L15.5011 5.07729L15.3247 4.88368C14.8981 4.41558 14.3626 4.16806 13.753 4.16806C12.5338 4.16806 11.6695 5.03671 11.6695 6.25139C11.6695 6.4499 11.6643 6.57464 11.6396 6.73858C11.5409 7.39276 11.174 7.91806 10.4194 7.91806C7.92107 7.91806 5.66715 6.57964 3.46926 4.29369C3.35595 4.63813 3.32931 4.99218 3.33303 5.65618C3.33353 5.74498 3.33353 5.74498 3.3337 5.83472C3.3337 7.5414 4.02513 8.47493 5.66224 8.99528L6.24315 9.17991V9.78946C6.24315 10.5286 5.54287 11.2244 4.51825 11.5361C4.98794 11.8924 5.94852 12.0847 7.5026 12.0847H8.33593V12.9181C8.33593 14.112 6.96403 15.0468 4.89164 15.535C5.5675 15.7421 6.4674 15.8313 7.5023 15.8313C11.3477 15.8313 15.4198 13.1575 15.4198 9.16806V7.08472C15.4198 6.8399 15.4907 6.6274 15.6086 6.40645C15.6547 6.32006 15.7055 6.2377 15.7681 6.14376C15.7799 6.12608 15.8237 6.06201 15.8584 6.01078L15.9245 5.87869C16.0315 5.66466 16.1385 5.45063 16.2454 5.2366C16.0792 5.20511 15.9163 5.1713 15.7566 5.13513Z" fill="currentColor" />
  </g>
</svg>
