<svg width="20" height="20" viewBox="0 0 20 20" fill="none" xmlns="http://www.w3.org/2000/svg">
  <g id="24 / symbols / instagram">
    <path id="icon" fill-rule="evenodd" clip-rule="evenodd" d="M13.3327 1.66675H6.66601C3.90459 1.66675 1.66602 3.90532 1.66602 6.66675V13.3334C1.66602 16.0948 3.90459 18.3334 6.66601 18.3334H13.3327C16.0941 18.3334 18.3327 16.0948 18.3327 13.3334V6.66675C18.3327 3.90532 16.0941 1.66675 13.3327 1.66675ZM3.33272 6.66673C3.33272 4.82578 4.8251 3.3334 6.66605 3.3334H13.3327C15.1737 3.3334 16.6661 4.82578 16.6661 6.66673V13.3334C16.6661 15.1743 15.1737 16.6667 13.3327 16.6667H6.66605C4.8251 16.6667 3.33272 15.1743 3.33272 13.3334V6.66673ZM9.99938 14.1667C7.6982 14.1667 5.83272 12.3012 5.83272 10.0001C5.83272 7.69888 7.6982 5.8334 9.99938 5.8334C12.3006 5.8334 14.1661 7.69888 14.1661 10.0001C14.1661 12.3012 12.3006 14.1667 9.99938 14.1667ZM9.99931 12.5001C11.38 12.5001 12.4993 11.3808 12.4993 10.0001C12.4993 8.61939 11.38 7.5001 9.99931 7.5001C8.6186 7.5001 7.49931 8.61939 7.49931 10.0001C7.49931 11.3808 8.6186 12.5001 9.99931 12.5001ZM14.9994 5.83343C14.9994 6.29367 14.6263 6.66677 14.1661 6.66677C13.7058 6.66677 13.3327 6.29367 13.3327 5.83343C13.3327 5.3732 13.7058 5.0001 14.1661 5.0001C14.6263 5.0001 14.9994 5.3732 14.9994 5.83343Z" fill="currentColor" />
  </g>
</svg>
