<svg width="41" height="45" viewBox="0 0 41 45" fill="none" xmlns="http://www.w3.org/2000/svg">
  <path fill-rule="evenodd" clip-rule="evenodd" d="M11.8799 4.93569C13.6441 6.67841 17.7627 6.0975 18.8304 2.98023V2.98125C18.8774 1.60671 17.2994 0.592164 15.3521 0.724096C15.1474 0.811005 14.9081 0.904187 14.6494 1.00489L14.6494 1.00491C12.75 1.74443 9.80871 2.88966 11.8799 4.93569ZM3.05482 7.26034C5.40811 8.42319 8.3505 6.09341 8.43641 4.03773C8.55792 3.43875 8.43147 2.91899 8.12429 2.52389C6.09445 3.72425 4.26449 5.21452 2.69398 6.93636C2.79685 7.04969 2.91672 7.15801 3.05482 7.26034ZM29.5455 3.68796C28.9421 7.25932 23.0583 6.0975 22.4703 3.19194C22.4703 2.03012 22.4703 0.8683 25.6244 0.776255C27.5583 0.926596 29.2653 2.23057 29.5455 3.68796ZM32.7648 2.65947C34.7634 3.87176 36.5634 5.36727 38.1064 7.08902C37.6632 7.54509 36.9812 7.7484 36.1492 7.57943C34.5027 7.24603 32.7947 5.66489 32.4879 4.15228C32.369 3.56682 32.4814 3.05532 32.7648 2.65947ZM6.83175 12.0447C6.58527 14.2333 4.23095 17.1389 1.87766 15.976C-1.0637 13.6524 1.87766 10.7468 4.35573 9.25262C6.0105 8.90182 7.1713 10.0606 6.83277 12.0447H6.83175ZM10.6987 14.2323C13.052 15.974 18.3466 14.8132 18.5665 10.8297V10.8286C18.6269 8.75557 16.7655 7.38205 14.5155 7.5958C11.2867 7.84023 8.34539 11.9076 10.6987 14.2323ZM31.0336 11.656C31.3527 13.6728 29.8083 15.302 27.3722 15.12C24.9371 14.938 22.728 12.9314 22.6339 10.8593C22.5398 8.78625 24.3531 7.44239 26.5653 7.68273C28.7764 7.92307 30.7145 9.63921 31.0336 11.657V11.656ZM37.621 16.3186C39.1673 16.5477 40.144 15.1302 39.8781 13.2689C39.6091 11.4075 38.1323 9.72818 36.5103 9.38455C34.8872 9.04091 33.7642 10.1986 34.1038 12.1705C34.4444 14.1433 36.0746 16.0885 37.621 16.3186ZM5.92664 22.5409C5.9972 24.1139 4.82005 26.4385 3.05482 26.4385C-1.06677 25.8576 -0.475636 19.4656 3.00777 18.5134C4.58584 18.3549 5.92766 20.1344 5.92664 22.5409ZM13.6441 27.5932C15.9985 27.5932 18.3507 25.2695 18.4049 22.5307V22.5297C18.4049 19.7386 16.201 17.5878 13.6554 17.7024C7.76141 18.2966 7.76141 27.0123 13.6441 27.5932ZM31.9029 22.5409C31.9039 25.065 30.019 27.1994 27.542 27.3252C25.0649 27.451 22.906 25.3197 22.906 22.5389C22.9049 19.7581 25.0629 17.6288 27.5399 17.7556C30.017 17.8824 31.9019 20.0168 31.9029 22.5409ZM37.7672 26.4344C39.5314 26.4344 40.7075 24.1108 40.5736 22.5409H40.5746C40.5736 20.4842 39.3586 18.7231 37.8275 18.5697C34.2368 19.4615 33.6456 25.8535 37.7672 26.4344ZM6.82561 33.0443C7.16414 35.0315 6.00232 36.1912 4.34857 35.8405C2.6938 35.4897 1.18936 33.796 0.910159 31.9224C0.631977 30.0498 1.62198 28.622 3.21436 28.8563C4.80573 29.0905 6.48709 31.0572 6.82561 33.0443ZM11.2888 36.3181C13.053 38.0567 18.9357 38.6376 18.5665 34.2522V34.2573C18.5082 32.1791 16.295 30.1878 13.7955 30.0252C10.1116 29.926 8.9355 33.9934 11.2888 36.3181ZM31.0438 33.4278C30.7247 35.4487 28.7866 37.1669 26.5735 37.4083C24.3603 37.6486 22.546 36.3007 22.64 34.2245C22.7341 32.1474 24.9443 30.1388 27.3804 29.9567C29.8165 29.7757 31.3629 31.408 31.0438 33.4289V33.4278ZM34.8248 35.1511C37.1781 36.8939 39.5314 34.5702 39.8832 31.817C40.1481 29.9547 39.1714 28.5351 37.625 28.7632C34.2367 29.341 33.0596 33.9893 34.8248 35.1511ZM8.35001 42.2816C8.46822 41.9505 8.50379 41.5429 8.43027 41.0523H8.4313C8.1255 39.554 6.39095 37.978 4.71777 37.6364C3.76701 37.1922 3.13464 37.3528 2.75821 37.8067C4.37277 39.5627 6.25804 41.0752 8.35001 42.2816ZM11.2908 41.5432C11.8799 45.0307 17.7627 45.6116 18.8294 42.1159L18.8253 42.1149C18.7813 40.7393 16.9066 39.4456 14.7344 39.242C13.055 38.6386 11.2908 39.8005 11.2908 41.5432ZM29.5506 41.4061C28.353 44.4487 24.2355 45.6116 23.0583 43.2869C21.8812 41.5432 23.0583 39.8004 26.3239 39.1653C28.4645 38.9352 29.8319 39.9528 29.5506 41.4113V41.4061ZM37.8992 37.8136C36.3351 39.5134 34.517 40.9849 32.503 42.1712C32.4935 42.156 32.484 42.1406 32.4746 42.1251C31.8865 39.8015 34.2398 38.0577 36.1595 37.5126C36.8659 37.3687 37.4639 37.4934 37.8992 37.8136Z" fill="currentColor" />
</svg>
