<svg width="2.44444444em" height="0.5em" preserveAspectRatio="none" viewBox="0 0 176 36" fill="none" xmlns="http://www.w3.org/2000/svg">
<text>o</text>
<path d="M17.7619 36C14.2143 36 11.0742 35.2047 8.34161 33.614C5.65695 31.9766 3.59552 29.7778 2.15732 27.0175C0.719106 24.2573 0 21.2398 0 17.9649C0 14.6901 0.719106 11.6959 2.15732 8.98245C3.59552 6.22222 5.65695 4.04678 8.34161 2.45614C11.0742 0.818715 14.2143 0 17.7619 0C17.8345 0 158.383 0.000340925 158.455 0.00102721C161.913 0.0338633 164.957 0.852237 167.586 2.45614C170.271 4.04678 172.333 6.22222 173.771 8.98245C175.257 11.6959 176 14.6901 176 17.9649C176 21.2398 175.257 24.2573 173.771 27.0175C172.333 29.7778 170.271 31.9766 167.586 33.614C164.957 35.1721 161.913 35.9671 158.455 35.999C158.383 35.9997 17.8345 36 17.7619 36ZM17.7619 28.6316C17.8348 28.6316 158.383 28.631 158.455 28.6299C161.414 28.5832 163.619 27.5779 165.07 25.614C166.604 23.6023 167.371 21.0526 167.371 17.9649C167.371 14.8772 166.604 12.3509 165.07 10.386C163.619 8.42206 161.414 7.41678 158.455 7.37012C158.383 7.36899 17.8348 7.36842 17.7619 7.36842C14.6937 7.36842 12.3926 8.37426 10.8585 10.386C9.37232 12.3509 8.62926 14.8772 8.62926 17.9649C8.62926 21.0526 9.37232 23.6023 10.8585 25.614C12.3926 27.6257 14.6937 28.6316 17.7619 28.6316Z" fill="url(#loooong_paint0_linear)"/>
<defs>
<linearGradient id="loooong_paint0_linear" x1="173.161" y1="18" x2="81.3736" y2="107.041" gradientUnits="userSpaceOnUse">
<stop stop-color="#FF6489"/>
<stop offset="0.671875" stop-color="#DF85FF"/>
<stop offset="1" stop-color="#9C83FF"/>
</linearGradient>
</defs>
</svg>
