<svg width="44" height="44" viewBox="0 0 44 44" fill="none" xmlns="http://www.w3.org/2000/svg">
  <path fill-rule="evenodd" clip-rule="evenodd" d="M16.1025 14.0565L27.8779 20.8498L31.3222 22.8076V5.84383C34.9291 7.86716 37.7586 11.0299 39.3652 14.834C40.9718 18.638 41.2641 22.8671 40.196 26.855C39.128 30.843 36.7603 34.3632 33.466 36.8612C30.1716 39.3591 26.1378 40.6929 22 40.6523C20.7645 40.6515 19.532 40.5302 18.3202 40.2901V43.6868C19.5356 43.8955 20.7667 44.0003 22 44C27.3245 43.9881 32.4649 42.0545 36.4717 38.5566C40.4785 35.0586 43.0811 30.2325 43.7987 24.9695C44.5164 19.7066 43.3007 14.3623 40.3761 9.92383C37.4515 5.48535 33.0156 2.25246 27.8877 0.822247V16.8854L18.9384 11.7268L16.0926 10.0823L12.6483 8.12458V12.0694L16.0926 14.0271L16.1025 14.0565ZM16.1025 20.5758L27.8779 27.3691L31.3222 29.3268V25.3918L27.8779 23.434L16.1025 16.6407L12.6581 14.683V18.6474L16.1025 20.6051V20.5758ZM27.8975 29.8848L16.1221 23.0914L12.6778 21.1337V38.1366C8.77556 35.9666 5.7842 32.471 4.2482 28.2862C2.71219 24.1013 2.73367 19.5053 4.30873 15.3349C5.88379 11.1645 8.90769 7.69688 12.83 5.5633C16.7523 3.42971 21.3123 2.77201 25.6798 3.7099V0.303448C24.4635 0.102818 23.2328 0.00133354 22 0C16.6755 0.0119428 11.5351 1.94545 7.52828 5.44343C3.52147 8.94141 0.918907 13.7675 0.20125 19.0305C-0.516407 24.2935 0.699326 29.6377 3.62392 34.0762C6.5485 38.5146 10.9844 41.7475 16.1123 43.1778V27.095L27.8877 33.8883L31.332 35.8461V31.9306L27.8975 29.8848Z" fill="currentColor" />
</svg>
