<svg width="52" height="86" viewBox="0 0 52 86" fill="none" xmlns="http://www.w3.org/2000/svg">
  <g clip-path="url(#clip0)">
    <rect width="1680" height="10309" transform="translate(-528 -2603)" fill="none" />
    <path d="M51.5627 0C27.8314 0 8.59332 19.2518 8.59332 43C8.59332 43.9964 8.62715 44.9848 8.69379 45.9643C8.81537 51.6888 8.93577 64.3036 7.86646 71.1572C7.02185 76.5706 3.31235 80.8323 0.466309 83.384C-0.475963 84.2288 0.104388 85.9031 1.36163 85.7619C6.74325 85.1574 16.2105 83.254 24.3495 77.2719C24.5677 77.1115 24.7731 76.9458 24.966 76.7751C32.2819 82.5523 41.52 86 51.5627 86H208.031C231.762 86 251 66.7482 251 43C251 19.2518 231.762 0 208.031 0H51.5627Z" fill="url(#paint0_linear)" />
    <path d="M51.5627 0C27.8314 0 8.59332 19.2518 8.59332 43C8.59332 43.9964 8.62715 44.9848 8.69379 45.9643C8.81537 51.6888 8.93577 64.3036 7.86646 71.1572C7.02185 76.5706 3.31235 80.8323 0.466309 83.384C-0.475963 84.2288 0.104388 85.9031 1.36163 85.7619C6.74325 85.1574 16.2105 83.254 24.3495 77.2719C24.5677 77.1115 24.7731 76.9458 24.966 76.7751C32.2819 82.5523 41.52 86 51.5627 86H208.031C231.762 86 251 66.7482 251 43C251 19.2518 231.762 0 208.031 0H51.5627Z" fill="currentColor" />
  </g>
  <defs>
    <linearGradient id="paint0_linear" x1="-2.4125e-05" y1="0" x2="-2.4125e-05" y2="86" gradientUnits="userSpaceOnUse">
      <stop stop-color="#313131" />
      <stop offset="1" />
    </linearGradient>
    <clipPath id="clip0">
      <rect width="1680" height="10309" fill="none" transform="translate(-528 -2603)" />
    </clipPath>
  </defs>
</svg>
