<svg viewBox="0 0 1599 1036"
xmlns="http://www.w3.org/2000/svg" xmlns:xlink="http://www.w3.org/1999/xlink">
  <!--common settings-->
  <defs>
    <!--pattern to detect shape area-->
    <pattern id="Dots" width="8" height="8"
        patternUnits="userSpaceOnUse">
      <rect x="3" y="3" width="1" height="1" fill="white"/>
    </pattern>
    <!--filter to find area in which pattern shapes must be painted-->
    <filter id="Range">
      <feMorphology radius="3" operator="dilate"/>
        <feComponentTransfer>
          <feFuncA type="linear" slope="255"/>
      </feComponentTransfer>
      <feConvolveMatrix order="2 2" kernelMatrix="1 1 1 1" divisor="1"/>
    </filter>
  </defs>

  <!--paint structure-->
  <defs>
    <!--base shape-->
    <g id="Base"><path d="M446.67 1021.94L444.45 1016.34L442.75 1012.92L439.58 1012.06L435.49 1015.09L434.04 1020.18L431.75 1023.64L425.86 1020.92L419.62 1015.95L415.95 1014.4L422.07 1022.76L426.61 1026.84L432.2 1031.15L436.86 1032.27L440.09 1034.62L444.9 1035.51L448.71 1033.07L450.18 1029.93L452.45 1032.67L456.67 1032.28L458.67 1028.41L452.45 1026.49L446.67 1021.94Z"/>
    <path d="M484.9 1004.71L481.12 1002.93L475.78 1007.22L478.01 1010.47L481.78 1007.22L483.78 1009.75L489.78 1007.58L491.12 1005.07L487.56 1001.87L484.9 1004.71Z"/>
    <path d="M1057.03 986.92L1054.16 984.8L1053.87 986.18L1053.21 988.97L1053.32 992.62L1060.14 992.17L1061.38 989.06L1061.23 987.77L1057.03 986.92Z"/>
    <path d="M1404.18 935.8L1400.71 936.93L1398.29 937.74L1394 935.71L1391.09 935.18L1390.98 937.88L1393.54 943.06L1394.15 947.03L1396.89 952.25L1399.62 952.43L1400.54 952.76L1403.63 948.51L1405.18 950.18L1405.64 945.3L1407.16 943.23L1406.85 936.19L1404.18 935.8Z"/>
    <path d="M1520.93 936.49L1517.77 938.88L1516.76 936.45L1515.78 933.96L1512.66 936.66L1512 939.96L1510.32 941.47L1508.34 945.94L1505.67 949.08L1501.87 952.28L1498.67 954.62L1495.8 955.78L1490.21 961.94L1487.83 966.64L1488.57 969L1493.4 969.45L1496.28 971.57L1500.37 971.71L1502.59 969.87L1506.08 967L1508.61 960.6L1509.8 956.52L1513.6 954.19L1517.03 954.11L1515.39 951.15L1517.66 948.7L1520.57 944.25L1522.22 941.49V938.98L1520.93 936.49Z"/>
    <path d="M1536.4 919.42L1533.4 918.97L1529.82 917.14L1529.16 912.92L1527.15 911.4L1527.06 915.2L1523.84 909.37L1522.58 904.49L1519.12 903.08L1516.7 900.08L1515.06 900.5L1516.91 904.34L1520.41 909.18L1522.54 911.46L1522.42 912.43L1524.22 916.16L1524.42 919.8L1523.67 924.16L1520.46 926.16L1520.34 928.24L1525.12 930.55L1526.58 933.75L1524.01 938.59L1525.87 939.44L1526.63 941L1530.06 938.64L1532.27 934.61L1533.94 931.46L1534.6 930.38L1534.18 927.9L1535.37 926.16L1538.76 926.27L1540.12 922.94L1541.19 917.92L1538.94 917.28L1536.4 919.42Z"/>
    <path d="M1490.54 837.85L1488.23 835.64L1484.59 832.68L1483.16 831.35L1481.21 829.73L1478.72 828.13L1476.81 828.06L1477.42 829.66L1480.36 833.01L1483.22 835.55L1486.41 837.7L1488.85 839L1490.54 837.85Z"/>
    <path d="M1539.46 815.85L1537.43 815.27L1535.72 816.87L1536.14 818.92L1538.6 819.5L1541.35 818.86L1542.09 816.42L1540.56 815.08L1539.46 815.85Z"/>
    <path d="M1543.77 810.87L1541.55 811.82L1542.12 813.55L1544.96 812.57L1547.79 811.43V809.17L1545.18 810.61L1543.77 810.87Z"/>
    <path d="M1492.3 811.63L1493.76 811.01L1490.97 808.36L1490.81 809.6L1492.3 811.63Z"/>
    <path d="M1488.36 802.52L1488.45 806.06L1489.09 807.33L1490.01 807.08L1491.21 807.66L1490.49 803.94L1488.36 802.52Z"/>
    <path d="M970.26 797.62L969.16 794.61L967.98 792.67L966.43 790.72L964.96 792.75L964.87 795.49L962.42 798.67L960.54 798.12L961.14 800.07L959.81 802.38L956.15 805.21L953.62 807.84L951.66 807.9L950.02 808.74L947.54 809.68L945.33 809.86L944.73 812.8L943.18 815.4L943.53 819.7L944.37 822.66L945.4 824.89L945 827.9L942.88 831.49L942.87 833.08L940.82 833.9L940.03 837.35L940.43 840.81L942 844.67L942.29 848.98L943.52 851.56L947.05 853.32L949.61 854.57L953.48 852.49L957.1 851.33L959.11 845.68L960.81 838.96L963.56 829.91L965.75 823.4L967.5 817.93L967.78 813.99L969.01 812.91L969.4 810.95L968.55 807.52L969.39 806.15L970.9 808.86L971.68 807.5L972.13 805.29L970.97 803.14L970.26 797.62Z"/>
    <path d="M1428.51 859.72L1428.39 856.89L1427.14 852.93L1423.67 848.97L1421.6 847.11L1418.45 844.13L1417.68 839.01L1416.6 839.75L1414.79 837.67L1413.02 838.73L1411.29 833.54L1408.75 830.56L1409.33 829.41L1406.35 827.35L1403.21 825.11L1398.39 822.64L1396.96 819.46L1397.38 817.04L1396.18 813.06L1395.06 812.49L1394.38 810.18L1393.44 806.22L1393.9 804.18L1391.76 802.38L1390.29 800.44L1387.44 802.17L1385.84 798.57L1385.99 796.91L1385.66 794.33L1384.05 792.01L1383.86 790.11L1382.75 789.56L1382.44 786.71L1381.18 784.49L1379.54 786.19L1379.42 787.49L1378.58 789.97L1377.51 792.39L1378.2 793.91L1377.35 794.84L1376.76 798.27L1377.28 800.89L1376.95 802.23L1377.57 804.45L1376.22 808.13L1375.67 810.66L1374.77 812.71L1373.9 815.21L1370.96 816.8L1366.72 815.22L1366.05 813.79L1363.72 812.6H1362.46L1359.25 809.85L1356.96 808.26L1353.54 806.78L1350.01 804.24L1349.69 802.93L1351.27 800.68L1352.58 798.39L1352.06 796.57L1353.59 796.41L1355.27 794.57L1356.46 792.13L1354.42 789.88L1353.38 790.76L1351.71 790.36L1349.11 791.66L1346.36 790.26L1345.09 790.73L1341.35 789.57L1338.98 787.7L1336.04 786.58L1333.67 787.24L1336.93 788.73L1337.01 791.05L1333.27 791.91L1331 791.37L1328.31 792.97L1326.38 795.58L1327.07 796.72L1325.07 797.91L1322.94 801.59L1323.88 804.11L1321.06 803.68L1318.27 803.64L1315.81 800.92L1312.52 798.82L1310.38 799.44L1308.42 800.09L1308.34 801.25L1306.39 800.72L1306.32 802L1304.08 802.77L1303.01 804.59L1300.59 806.86L1300.04 810.38L1298.08 809.37L1296.69 811.62L1298.27 813.81L1296.38 814.75L1294.51 810.73L1291.4 814.68L1291.28 817.21L1291.08 819.08L1288.47 821.45L1287.34 823.97L1284.92 826.06L1280.25 827.45L1277.79 827.33L1276.62 827.76L1275.94 828.8L1273.25 829.33L1269.75 831.1L1268.52 830.51L1266.51 830.88L1263.11 832.63L1260.94 834.66L1257.33 836.26L1255.45 839.56L1255.12 835.91L1253.28 839.36L1253.75 842.18L1253.15 844.6L1252.24 845.79L1251.76 848.61L1252.79 850.07L1253.21 851.61L1255.41 855.49L1255.49 858.02L1254.17 856.1L1251.97 854.67L1253.46 859.26L1251.51 857.12L1252.13 859.24L1254.67 863.18L1255.22 867.12L1257.19 869.13L1257.31 870.61L1259.07 873.92L1258.88 876.85L1259.61 879.78L1261.96 885.03L1262.46 888.13L1261.91 891.8L1262.07 893.71L1261.32 894.91L1259.11 895.64L1259.02 898.71L1261.4 899.73L1266.12 903.18H1269.1L1272.34 903.4L1274.48 901.68L1276.7 900.15L1278 900.39L1280.65 897.52L1283.7 897.28L1286.89 896.7L1290.82 897.67L1293.61 897.2L1297.38 897.07L1299.03 894.9L1299.88 892.11L1303.74 890.89L1308.45 888.19L1312.69 888.53L1317.74 886.78L1323.5 884.91L1331.46 884.42L1335.73 886.97L1338.86 887.11L1344.56 890.3L1343.72 891.52L1346.07 893.51L1348.85 897.38L1348.71 900.23L1352.18 902.45L1353.88 898.16L1356.66 896.33L1360.27 891.8L1360.63 895.73L1358.91 898.35L1358.24 901.46L1355.91 904.47L1359.87 903.47L1362.04 899.73L1363.11 903.74L1361.66 906.38L1365.93 907.04L1368.11 909.27L1369.15 912.06L1369.97 916.28L1372.85 919.75L1377.15 921.39L1379.69 921.79L1382.21 922.68L1386.05 924.23L1389.94 920.12L1392.37 919.05L1391.68 922L1394.41 923L1398.09 925.52L1400.77 923.08L1402.82 920.88L1406.92 918.57L1411.89 918.36L1414.44 916.41L1414.21 914.64L1414.79 910.82L1415.91 906.71L1417.63 903.99L1418.94 899.32L1420.42 896.67L1422.05 892.54L1425.34 889.95L1427.31 885.17L1428.18 881.45L1428.09 878.49L1429.29 873.91L1430.06 871.55L1430.31 867.08L1428.2 862.81L1428.51 859.72Z"/>
    <path d="M1467.42 783.49L1464.76 782.4L1466.45 785.18L1469.56 785.21L1468.31 783.66L1467.42 783.49Z"/>
    <path d="M1284.3 782.56L1284.57 781.34L1283.01 779.97L1280.67 778.6L1276.53 779.49L1282.43 782.64L1284.3 782.56Z"/>
    <path d="M1460.51 778.77L1457.58 778.06L1457.3 779.85L1458.22 780.55L1460.95 781L1462.68 780.9L1461.96 779.72L1460.51 778.77Z"/>
    <path d="M1465.69 780.5L1466.36 779.67L1464.59 777.51L1462.98 773.91H1461.47L1462.4 776.6L1465.69 780.5Z"/>
    <path d="M1307.55 774.42L1303.72 775.43L1303.2 776.49L1298.81 778.28L1296.9 781.03L1296.5 782.56L1297.03 783.1L1300.83 782.11L1303.74 778.74L1307.46 777.45L1312.09 775.48L1313.72 774.26L1312.04 773.7L1310.65 774.26L1307.55 774.42Z"/>
    <path d="M1273.39 774.1L1271.79 772.91L1270.59 774.49L1268.16 774.53L1266.63 777.12L1269.02 777.16L1272.1 776.55L1277.24 775.65L1276.13 773.74L1273.39 774.1Z"/>
    <path d="M1293.37 775.4L1294.03 772.9L1290.04 774.55L1287.08 774.89L1284.3 773.54L1280.77 774.48L1280.78 776.12L1286.69 776.67L1293.37 775.4Z"/>
    <path d="M1458.34 773.99L1457.3 772.57L1453.65 770.5L1451.61 769.43L1450.94 769.88L1452.61 771.38L1455.05 772.99L1458.53 774.89L1458.34 773.99Z"/>
    <path d="M1443.53 766.2L1443.3 766.95L1445.13 768.79L1447.07 769.81L1447.95 769.55L1446.18 768.09L1443.53 766.2Z"/>
    <path d="M1256.96 775.85L1262.03 774.14L1256.58 771.48L1249.91 770.65L1248.3 767.75L1240.05 765.6L1239.07 767.45L1230.55 767L1229.95 765.4L1228.11 765.07L1224.52 763.32L1219.13 763.05L1216.07 767.33L1220.14 767.66L1220.91 769.58L1229.02 771.43L1230.87 770.87L1234.13 771.32L1239.28 773.03L1243.44 773.83L1248.05 774.16L1252.07 774.04L1256.96 775.85Z"/>
    <path d="M1343.84 764.16L1344.27 767.52L1346.56 764.48L1346.57 762.35L1345.56 761.04L1344.63 762.55L1343.84 764.16Z"/>
    <path d="M1436.95 761.59L1435.61 760.57L1435.13 759.25L1434.51 759.68L1435.47 763.08L1437.42 765.92L1439.34 767.64L1440.59 767.19L1441.21 765.93L1439.11 764.42L1436.95 761.59Z"/>
    <path d="M1415.07 759.06L1414.43 759.17L1413.77 761.31L1411.33 761.66L1407.35 761.01L1406.98 762.39L1409.52 763.64L1413.16 764.94H1415.52L1417.8 763.89L1420.23 762.81L1420.94 761.56L1423.27 761.19L1424.76 758.47L1424.85 755.99L1423.95 755.26L1421.29 755.35L1421.78 757.97L1419.3 759.57L1418.04 761.09L1415.51 761.43L1415.07 759.06Z"/>
    <path d="M1307.74 750.93L1308.6 752.85L1311.67 753.67L1313.34 752.19L1312.23 750.72L1307.74 750.93Z"/>
    <path d="M1317.28 749.45L1316.22 751.89L1319.3 752.05L1321.81 751.76L1325.52 752.13L1329.27 753.97L1327.66 750.57L1322.77 749.26L1317.28 749.45Z"/>
    <path d="M1423.13 752.2L1425.14 753.66L1426.18 755.38L1427.02 758.01L1428.41 756.83L1427.87 754.51L1426.18 753.08L1424.41 751.21L1422.54 750.14L1421.03 749.16L1418.63 747.92L1417.39 748.99L1420.6 750.3L1423.13 752.2Z"/>
    <path d="M1404 763.89L1396.59 761.13L1395.92 758.5L1393.44 756.26L1390.38 753.98L1382.16 751.43L1374.45 748.37L1369.68 747.52L1366.38 745.92L1362.59 744.37L1358.63 744.38L1353.53 747.06L1349.82 751.78L1345.22 749.12L1343.98 741.92L1343.28 740.27L1336.14 738.45L1333.87 739.89L1327.87 740.97L1329.75 743.17L1333.72 743.99L1335.48 746.64L1341.99 746.65L1342.36 747.83L1339.19 747.74L1334.41 749.35L1337.8 751.53L1337.82 753.47L1338.83 755.1L1340.53 754.71L1341.84 752.54L1348.52 756.66L1352.18 757.04L1360.8 760.81L1362.93 764.56L1364.09 769.43L1361.29 770.67L1359.4 774.33L1365.03 774.19L1366.13 772.91L1370.64 773.81L1374.6 777.5L1379.2 777.69L1381.69 778.44L1385.18 776.89L1384.61 773.58L1387.33 772.09L1391.09 770.82L1396.89 772.78L1399.2 776.72L1401.72 779.19L1405.18 782.06L1409.66 782.75L1413.48 783.25L1414.58 784.42L1417.52 784.11L1418.02 782.8L1413.29 780.9L1414.63 780.05L1411.19 779.28L1411.37 777.29L1408.83 777.45L1405.94 772.68L1401.97 769.73L1400.99 766.75L1405.08 766.27L1404 763.89Z"/>
    <path d="M1278.11 742.82L1277.48 746.35L1275.64 749.26L1277.02 752.31L1278.89 752.34L1279.58 756.64L1278.31 760.75L1280.22 762.06L1283.03 761.41L1282.85 755.03L1282.47 749.84L1285.44 748.49L1285.11 752.82L1288.31 755.44L1287.74 757.16L1288.84 758.39L1293.21 756.67L1291.06 760.32L1292.8 761.89L1295.17 760.58L1295.21 757.64L1291.22 752.5L1292.03 750.97L1287.82 745.27L1291.74 743.55L1293.66 740.94L1295.6 741.59L1295.97 739.54L1287.68 741.05L1285.28 743.07L1281.3 739.12L1281.93 735.75L1285.82 735.11L1293.22 734.89L1297.5 735.76L1300.84 734.9L1304.41 730.49L1303.63 729.5L1299.24 732.73L1294.13 732.92L1288.53 732.3L1285.06 730.99L1281.28 734.29L1280.35 736.12L1278.11 742.82Z"/>
    <path d="M1316.69 729.57L1316.37 727.13L1314.9 728.76L1314 732.31L1315.32 737.99L1317.12 740.8L1318.36 740.27L1316.53 737.92L1317.21 735.22L1319.5 735.66L1319.73 731.77L1319.32 729.96L1316.69 729.57Z"/>
    <path d="M1218.26 755.96L1219.38 750.42L1217.22 747.61L1213.95 747.21L1212.4 744.73L1211.65 741.63L1210.06 741.51L1207.51 739.97L1209.29 736.34L1205.9 734.31L1203.33 730.59L1199.6 727.54L1195.08 727.48L1190.87 722.69L1188.42 720.84L1184.98 717.82L1181.05 713.46L1174.17 712.59L1171.31 712.41L1171.7 714.68L1176.34 719.6L1179.68 722.09L1182.01 725.9L1186.01 728.7L1187.65 732.17L1188.96 735.99L1192.86 739.69L1196.24 745.92L1198.45 749.25L1201.81 752.88L1203.71 755.58L1209.42 759.22L1213.16 762.95L1218.09 762.86L1218.26 755.96Z"/>
    <path d="M1232.02 734.96L1232.64 738.85L1234.77 742.65L1236.99 743.88L1237.67 749.85L1241.33 750.36L1244.24 750.12L1245.87 752.27L1251.15 750.68L1253.37 752.1L1256.54 752.35L1258.3 755.08L1263.35 753.07L1264 754.65L1265.71 747.85L1265.83 743.42L1270.11 740.38L1269.91 736.35L1271.39 733.32L1276.66 732.8L1271.68 728.68L1272.44 726.63L1269.18 722.42L1271.7 718.4L1274.98 716.88L1274.18 714.7L1277.17 714.49L1277.48 712.73L1273.78 711.39L1270.85 710.15L1270.64 708.21L1268.36 705.94L1266.56 705.95L1264.32 709.45L1260.9 712.56L1257.12 715L1255.36 716.67L1253.18 719.49L1249.99 723.01L1244.66 723.97L1242.76 724.81L1241.87 728.58L1238.43 729.41L1235.18 727.89L1232.54 730.84L1232.02 734.96Z"/>
    <path d="M1296.62 698.02L1294.19 699.72L1291.39 700.98L1289.65 704.76L1290.38 706.07L1293.68 703.57L1295.77 703.74L1297.16 701.88L1299.98 704L1298.63 706.13L1299.87 709.37L1305.11 711.96L1306.38 709.87L1304.96 706.57L1307.03 704.3L1308.66 708.86L1310.17 704.77L1309.91 702.25L1309.46 699.27L1309.15 697.62L1308.78 695.35L1305.17 693.21L1305.43 696.7L1302.3 696.82L1301.57 698.82L1298.19 700.05L1296.62 698.02Z"/>
    <path d="M1107.07 695.43L1104 692.93L1101.98 700.23L1102.77 706.68L1104.89 710.23L1108.75 709.21L1110.62 707.93L1111.29 703.27L1109.14 698.6L1107.07 695.43Z"/>
    <path d="M473.25 692.13L476.96 691.64L477.14 688.27L476.21 688.11L473.65 688.7L473.74 690.49L472.45 691.73L473.25 692.13Z"/>
    <path d="M1294.22 688.15L1293.73 690.96L1292.61 692.22L1291.7 693.43L1294.43 696.54L1295.83 695.21L1297.22 692.36L1298.82 690.87L1299.24 686.56L1295.95 690.93L1296.67 687.88L1294.22 688.15Z"/>
    <path d="M1276.62 690.44L1273.95 693.56L1270.74 696.34L1268.56 699.49L1274.47 695.22L1276.8 692.12L1279.74 689.63L1278.94 685.94L1276.62 690.44Z"/>
    <path d="M1289.49 683.57L1290.18 685.73L1289.86 688.04L1290.02 690.14L1292.84 688.79L1294.9 686.86L1294.98 684.97H1292.16L1289.49 683.57Z"/>
    <path d="M1305.58 682.34L1304.35 680.64L1300.08 680.54L1302.8 684.01L1302.86 685.73L1300.24 685.37L1300.94 688.11L1302.27 688.35L1302.46 691.52L1304.57 690.51L1303.49 687.72L1303.39 686.21L1306.82 687.4L1305.58 682.34Z"/>
    <path d="M1284.83 679.88L1286.73 682.14L1287.9 678.21L1286.36 676.56L1282.55 676.4L1284.83 679.88Z"/>
    <path d="M1280.77 667.49L1281.43 669.5L1283.63 672.14L1284.2 670.48L1285.53 671.55L1284.14 672.71L1283.91 674.61L1286.12 675.61L1290.16 674.94L1292.99 677.68L1294.14 676L1295.78 678.4L1299.24 680.64L1299.7 678.53L1298.25 677.44L1298.67 674.95L1293.12 672.41L1291.16 672.96L1288.8 672.45L1287.81 668.79L1288.51 665.07L1291.13 663.54L1292.3 659.68L1290.78 656.34L1291.51 654.4L1291.1 653.21L1289.73 654.43L1286.99 653.1L1284.3 653.09L1282.85 657.33L1282.39 664.59L1280.6 663.07L1280.77 667.49Z"/>
    <path d="M449.56 653.02L448.93 653.71L449.19 655.7L451.78 655.54L455.13 655.57L456.27 654.39L455.47 653.46L453.2 653.04L449.56 653.02Z"/>
    <path d="M406.02 653.58L403.03 653.16L402.02 653L400.15 653.33L399.62 654.4L402.16 656.1L404.65 656.85L405.99 656.07L409.12 655.98L408.38 654.7L406.02 653.58Z"/>
    <path d="M421.32 654.44L424.03 654.77L426.13 654.45L429.08 655.25L429.3 656.59L430.45 657.33L432.23 654.13L433.7 653.46L434.38 654.6L436.08 654.31L436.88 653.45L438.35 653.67L440.38 653.48L442.5 654.5L444.15 652.59L441.97 650.87L439.99 650.7L440.13 649.3L437.7 649.39L436.89 647.72L435.72 647.84L433.09 646.62L429.62 646.6L429.07 647.4L425.21 646.66L422.5 646.45L421.5 647.76L424.3 648.49L424.26 650.29L426.3 652.33L424.7 653.37L421.34 652.99L417.25 652.34L416.86 653.85L419.24 655.31L421.32 654.44Z"/>
    <path d="M1239.21 649.57L1241.16 647.49L1240.17 645.68L1237.62 645.57L1232.76 646.9L1230.57 649.04L1230.7 653.08L1234.34 654.53L1238.18 652.28L1239.21 649.57Z"/>
    <path d="M57.9 646.09L57.11 645.68L55.41 644.88L55.07 644.79L54.81 645.23L55.12 646.16L54.34 646.93L54.13 647.46L54.86 649.17L54.73 650.49L55.84 651.16L56.49 650.38L57.91 649.64L59.65 648.64L59.75 648.37L58.62 646.72L57.9 646.09Z"/>
    <path d="M53.31 641.7L51.73 641.25L51.29 641.66L51.33 641.96L51.84 642.34L52.61 643.34L54.1001 643L54.47 642.43L53.31 641.7Z"/>
    <path d="M48.5601 640.84L50.9401 640.98L51.0801 640.47L48.9001 640.26L48.5601 640.84Z"/>
    <path d="M45.45 637.89L44.26 638.55L44.43 638.74L45 639.82L46.54 639.99L46.87 640.05L47.1 639.77L45.82 638.19L45.45 637.89Z"/>
    <path d="M38.4701 635.4L37.7901 635.87L37.5601 636.22L39.0601 637.09L39.5901 636.62L39.4901 635.5L38.4701 635.4Z"/>
    <path d="M414.62 646.42L417.58 645.82L418.11 644.7L414.75 642.76L411.47 642.57L411.79 641.23L409.14 640.25L407.68 640.33L404.91 638.17L401.15 635.21L399.58 634.07L395.43 634.62L393.65 632.85L389.48 631.21L385.99 631.16L382.15 630.81L381.07 631.34L377.7 631.8L375.44 632.74L373.43 633.81L372.46 635.55L370.12 637.03L372.02 637.49L374.22 636.96L374.86 635.79L376.7 635.72L379.89 633.23L384.25 633.47L382.58 634.68L384.14 635.61L389.93 636.36L391.26 637.36L395.41 638.64L397.92 638.46L398.97 641.17L400.51 642.55L403.37 642.86L405.19 644.1L402.21 646.74L408.57 646.28L411.63 646.65L414.62 646.42Z"/>
    <path d="M400.27 620.96L399.31 624.07L400.97 625.48L402.1 628.28L403.19 628.04L403.16 625.22L401.61 621.16L400.27 620.96Z"/>
    <path d="M1286.35 632.73L1289.02 624.96L1289.79 622L1287.76 620.54L1284.21 624.25L1281.59 629.03L1282.1 632.61L1284.44 636.67L1286.35 632.73Z"/>
    <path d="M398.85 612.75L396.76 613.15L397.07 614.99L401.92 614.19L401.79 612.9L398.85 612.75Z"/>
    <path d="M404.79 617.66L405.56 614.14L402.05 611.9L402.06 612.48L404.05 614.44L403.98 617.03L404.79 617.66Z"/>
    <path d="M1340.14 579.75L1342.42 578.51L1344.24 580.22L1346.74 576.99L1346.18 575.16L1342.91 573.99L1341.09 576.25L1338.56 575.63L1336.1 578.82L1336.07 581.34L1338.96 582.85L1340.14 579.75Z"/>
    <path d="M897.42 568.53L894.22 568.46L893.57 569.77L893.26 569.8L891.15 570L892.18 572.17L894.36 572.88L898.92 570.68L898.78 570.24L898.46 569.22L901.46 566.9L897.42 568.53Z"/>
    <path d="M859.01 568.25L855.55 568.56L853.12 566.72L852.3 569.04L857.72 570.1L857.67 571L864.07 570.53L864.63 568.93L862.21 569.58L862.31 568.64L859.01 568.25Z"/>
    <path d="M813.39 553.16L808.86 553.77L803.66 553.26L803.03 556.15L809.24 558.99L811.5 559.59L814.9 561.68L815.83 558.83L815.16 557.09L816.76 552.67L813.39 553.16Z"/>
    <path d="M785.07 540.33L785.24 547.31L786.93 548.82L788.74 546.92L790.76 547.28L791.38 539.62L788.72 535.45L786.5 537.28L784.05 536.98L785.07 540.33Z"/>
    <path d="M1364.93 554.95L1358.41 560.53L1355.45 557.87L1350.8 567.69L1346.04 566.57L1337.2 568.21L1333.94 571.92L1329.46 574.7L1327.14 578.07L1322.93 579.71L1324.74 583.35L1327.55 584.88L1326.46 589.6L1328.61 591.61L1331.49 589.43L1334.45 580.49L1329.94 576.57L1335.15 576.46L1340.41 573.93L1348.14 572.74L1348.32 576.76L1351.31 578.81L1357.64 572.69L1365.46 572.36L1371.13 569.81L1373.45 565.97L1372.67 563.21L1374.35 558.78L1374.27 552.99L1378.38 547.25L1378.51 542.58L1376.09 534.45L1371.37 535.54L1369.49 539.25L1370.25 545.77L1367.46 552.75L1364.93 554.95Z"/>
    <path d="M788.81 534.44L790.27 529.84L789.52 524.66L786.66 526.98L785.76 529.21L786.79 533.23L788.81 534.44Z"/>
    <path d="M1371.39 522.69L1369.2 527.37L1369.81 533.32L1374.75 533.23L1377.17 526.67L1384.16 530.78L1388.05 524.8L1394.64 523.13L1393.66 516.21L1390.51 518.84L1387.38 517.52L1383.98 515.43L1378.75 508.88L1377.44 513.8L1376.14 522.35L1371.39 522.69Z"/>
    <path d="M464.83 502.49L463.27 499.33L461.59 501.34L462.71 503.5L468.35 506.23L469.99 505.81L472.18 503.18L468.06 503.35L464.83 502.49Z"/>
    <path d="M472.96 484.32L468.42 481.46L462.57 479.73L461.03 480.31L465.17 483.55L470.93 485.69L473.09 485.57L472.96 484.32Z"/>
    <path d="M198.85 489.58L197.02 485.86L192.58 483.04L190.38 479.78L188.87 477.39L184.7 476.65L181.97 475.59L177.31 474.06L176.92 475.69L178.63 479.47L183.21 480.71L184.01 482.67L187.99 485.06L189.32 487.46L196.62 490.52L198.85 489.58Z"/>
    <path d="M500.67 470.2L501.53 468.27L499.47 467.96L495.61 470.41L492.86 474.44L488.26 485.43L484.53 489.5L486.47 491.31L483.7 493.66L484.38 495.61L493.01 495.81L497.78 495.42L502.05 497.01L498.91 500.09L501.56 500.32L506.72 494.63L507.95 495.47L506.99 500.82L509.91 502.05L511.92 501.81L513.79 496.06L512.41 491.94L511.85 488.39L508.74 489.54L510.11 484.59L505.68 482.49L503.63 484.15L499.69 482.28L501.25 479.88L498.26 478.4L495.36 480.73L498.3 474.65L500.67 470.2Z"/>
    <path d="M162.23 449.63L157.96 450.23L155.87 449.25L155.61 451.66L156.43 454.96L158.67 457.27L160.32 460.65L162.99 463.99L164.77 464L160.9 458.12L162.23 449.63Z"/>
    <path d="M1377.09 465.78L1379.7 472.79L1379.5 482.09L1378.47 487.24L1378.98 494.45L1378.48 500.83L1379.31 506.24L1382.22 501.25L1385.59 505.14L1385.71 500.63L1381.38 493.9L1384.11 484.2L1390.69 486.45L1386.22 474.22L1384.38 467.06L1384.5 459.92L1382.96 452.76L1381.81 447.76L1379.83 448.83L1381.59 452.33L1377.49 455.77L1377.09 465.78Z"/>
    <path d="M709.73 467.69L717.61 463.43L720.97 456.88L720.24 451.53L722.62 446.31L717.86 441.54L714.13 441.86L710.77 445.47L704.72 451.44L707.05 459L703.44 466.61L709.73 467.69Z"/>
    <path d="M801.52 444.43L804.18 438.12L802.77 434.15L796.25 436.78L796.87 440.04L801.52 444.43Z"/>
    <path d="M66.77 418.97L64.39 420.24L60.36 423.2L61.05 427.04L63.32 429.14L67.76 426.03L71.6 422.12L69.72 419.54L66.77 418.97Z"/>
    <path d="M722.96 440.46L725.35 436.75L726.81 438.92L725.19 442.4L726.26 444.5L731.65 445.85L734.7 450.65L734.04 455.01L727.43 454.33L726.59 459.19L729.02 463.13L724.38 465.37L725.63 468.24L732.61 469.43L728.63 470.96L722.11 478.33L724.47 479.71L727.59 477.06L731.71 477.86L734.65 474.58L736.72 475.96L744.28 474.04L750.23 474.1L754.23 470.4L752.46 466.7L754.72 464.59L755.26 459.92L749.87 458.52L748.61 455.6L745.87 447.01L742.83 445.77L738.52 435.75L733.92 435.24L737.92 428.04L739.08 421.34L734.21 421.3L729.68 422.44L734.43 413.33L729.07 414.05L725.52 413.38L722.07 420.22L720.45 428.73L722.7 432.84L722.96 440.46Z"/>
    <path d="M7.93004 398.01L3.54004 399.54L6.24004 401.97L9.15004 403.62L11.88 402.25L11.46 398.82L7.93004 398.01Z"/>
    <path d="M393.75 386.56L395.49 381.59L394.36 379.64L392.55 379.43L390.83 382.29L390.62 382.95L391.79 385.76L393.75 386.56Z"/>
    <path d="M374.48 378.78L375.45 381.37L378.59 381.59L383.79 376.29L383.89 374.4L377.79 374.32L374.48 378.78Z"/>
    <path d="M391.77 366.28L388.6 362.93L385.33 363.72L384.93 358.86L379.84 355.63L374.97 352.03L372.39 349.25L370.11 350.89L369.29 346.19L366.08 345.31L364.56 355.05L363.99 363.15L360.13 368.13L366.15 367.17L367.68 372.96L374.01 367.84L378.41 362.48L380.91 367.02L387.82 369.42L391.77 366.28Z"/>
    <path d="M687.3 351.85L682.27 344.55L683.3 337.44L675.93 336.65L668.68 342.54L663.09 339.43L656.34 345.38L649.41 337.96L642.67 339.58L639.67 346.69L649 349.17L649.19 352.29L641.32 354.33L650.99 359.41L646.62 363.92L659.02 367.1L664.87 368.58L668.7 366.75L681.52 359.8L687.3 351.85Z"/>
    <path d="M413.49 326.23L413.99 324.62L413.94 319.59L410.47 316.28L406.4 317.93L404.51 324.55L405.62 330.2L410.6 329.62L413.49 326.23Z"/>
    <path d="M311.26 293.01L308.15 298.63L304.24 302.57L310.31 308.19L313.93 306.83L319.92 310.57L322.68 306.24L319.98 301.43L318.64 299.01L315.98 296.7L311.26 293.01Z"/>
    <path d="M1547.79 283.85V283.78L1553.59 282.95L1558.17 279.68L1558.55 277.8L1552.12 273.8L1548.35 273.77L1547.79 274.36V274.43L1542.12 280.21L1542.91 284.54L1547.79 283.85Z"/>
    <path d="M591.19 761.13L589.57 759.72L585.77 759.54L582.35 758.26L576.67 753.26L570.1 749.57L563.46 749.74L554.81 747.39L549.64 748.76L550.37 746.3L548.2 743.69L540.82 741L535.23 739.4L531.86 742.32L531.7 737.86L523.84 737.16L522.46 735.82L525.8 732.17L525.68 729.1L523.3 728.37L520.81 720.58L519.71 718.12L518.19 718.33L517.46 716.5L512.75 712.74L509.48 711.68L507.97 711.18L503.19 710L499.6 710.32L499.12 711.12L493.8 710.23L492 708.65L489.62 706.47L487.95 706.37L487.82 704.06L485.07 701.14L482.15 699.49L480.41 698.42L478.1 698.53L477.39 694.93L474.02 692.71L470.47 692.37L469 690.24L472.77 688.9L467.44 688.96L461.94 689.24V690.37L459.45 691.79L456.05 691.23L453.5 689.23L448.75 689.7H444.75L444.58 688.2L441.69 685.68L438.57 685.6L436.98 682.41L435.42 683.84L436.04 685.99L430.5 687.82L430.72 691.24L432.1 692.84L431.1 696.09L429.19 696.39L427.51 692.81L429.51 690.19L429.56 687.82L428.11 685.82L430.72 685.29L430.84 684.21L431.71 682.69L430.54 681.49L428.97 681.21L426.82 683.4L425.08 684.4L421.59 686.69L418.11 686.32L417.76 687.26L414.96 687.35L412.41 689.45L411.59 693.26L411.54 694.76L409.72 695.23L406.38 698.37L404.08 698.24L402.41 696.99L400.96 695.64L398.96 694.86L396.49 694.7L396.65 694.26L394.2 694L392.68 695.34L389.98 696.25L388 697.27L385.81 697.6L384.59 696.49L384.17 696.86L382.4 696.66L382.49 695.66L380.89 694.05L378.81 692.13L377.09 690.3L376 687.89L375.32 687.15L375.12 685.93L376.02 684.76L375.72 683.57L376.13 681.57L376.81 681.12L376.7 679.12L376.46 677.95L376.61 675.95L377.09 674.11L378.09 672.55L377.63 670.87L377.86 669.87L378.24 669.43L377.07 668.17L375.46 667.46L374.17 666.46L372.82 665.59L372.11 665.49L370.11 664.85L369.23 665.25L368.06 665.36L367 665L365.58 664.76L365.06 665.28L363.63 665.79L361.58 665.91L359.51 665.49L358.82 665.72L358.41 665.34L357.14 665.4L356.14 666.22L355.67 666.04L354.37 665.45L353.99 666.14L352.54 665.3L353.42 663.7L354.22 663.55L355.1 662.32L355.61 659.98L355.33 659.53L355.79 657.87L355.41 657.15L356.13 655.15L356.2 653.88H355.36V653.19L356.29 653.11L357.42 654.31L358.53 650.65L359.2 648.65L358.38 647.83L359.44 644.95L361.8 642L361.95 639.71L360.89 638.71L358.19 639.11L354.26 638.94L349.56 640.05L346.56 641.3L345.79 642.69L345.42 646.69L344.36 649.44L341.54 651.36L338.74 652.17L335.41 653.01L332.02 653.48L328.12 654.79L326.29 652.79L321.57 651.55L319.83 649.23L318.83 646.54L315.88 643.02L315 639.32L313.57 637L312.8 634.39L313.23 632.04L313.55 625.54L314.33 622.02L316.04 617.72L315.2 616.04L314.98 613.66V610.21L315.98 607.95L318.41 605.55L322.83 603.37L326.83 599.6L330.57 598.4L333.34 598.04L336.57 599.23L340.44 598.59L343.76 601.29L346.99 601.45L348.66 600.45L350.31 601.2L351.15 600.53L350.21 599.53L350.28 597.46L349.43 596.01L351.32 595.29L354.71 594.94L358.65 595.51L363.65 594.86L366.43 596.13L368.59 598.52L369.38 598.78L373.87 596.45L375.6 597.24L379.07 601.52L380.31 604.3L379.4 607.65L380.07 609.65L382.13 613.47L384.49 617.73L386.18 618.87L387 621L389.19 621.59L390.52 620.97L391.63 617.97L391.82 616.05L391.96 612.7L389.85 606.89V604.71L387.85 601.12L386.37 596.74L385.59 593.17L386.27 589.48L388.37 586.38L390.87 583.88L395.75 580.44L396.38 578.66L398.64 576.66L400.85 576.32L403.77 573.16L408.37 571.56L411.2 567.56L410.57 562.06L410.11 560.15L408.84 559.76L408.65 554.43L405.72 552.65L408.53 553.5L407.53 549.9L408.39 547.43L408.91 552.17L411.18 554.33L409.81 558.14L410.21 558.37L412.72 553.88L414.14 551.69L414.02 549.54L412.97 548.54L412.05 545.45L413.5 546.89L414.5 547.19L414.83 548.66L418.07 544.24L419.07 540.06L417.75 539.79L419.11 538.17L418.98 538.89H421.81L428 537.1L426.71 536L420.19 537.11L423.89 535.4L426.47 535.11L428.41 534.82L431.7 533.82L433.83 533.94L436.83 532.94L437.19 531.23L435.85 529.91L436.32 532.09L434.47 531.94L433 528.74V525.54L433.56 524.54L436.11 520.54L440.8 518.72L445.37 516.58L450.11 513.58L449.35 511.52L454.29 510.75L461.4 510.55L453.68 515.73L453.86 520.96L457.23 521.42L462.23 516.97L466.64 514.45L476.49 510.71L481.98 506.55L479.11 504.23L478.81 499.54L474.35 506.79L467.01 507.71L461.23 504.51L459.78 499.63L458.38 492.54L462.57 488.04L458.64 484.72L451.99 485.4L442.67 491L435.54 499.67L431.77 500.74L436.88 494.69L443.29 485.83L448.96 482.83L452.68 477.88L457.28 477.4L463.95 477.45L473.46 478.91L480.97 477.78L486.56 472.03L493.89 469.5L497.08 466.99L500.31 464.28L500 456L498.21 453.19L494.75 452.19L493 445.76L490.15 443.31L483.06 441.31L479.06 436.82L473.15 432.34L474.94 427.25L470 417.3L464.21 406.36L460.75 398.44L457.81 402.59L453.55 412.21L447.12 416.93L443.9 411.93L439.84 410.58L438.36 399.48L438.5 391.86L430.57 391.17L429.22 387.58L423.75 382.12L419.61 378.88L415.93 381.39L411.36 380.46L403.74 377.86L400.64 380.07L402.13 394.64L404.07 402.76L398.82 411.89L404.22 418.28L407.22 425.33L407.58 430.77L405.12 436.33L400.12 441.84L393 445.45L396.13 449.45L398.45 461.21L396.05 468.63L392.62 471L386 464.17L382.79 456L381.4 448.44L382.13 441.77L377.3 441L369.95 440.55L365.25 437.24L359.68 435L356.5 431.22L352.06 428.15L343.79 424.61L337.58 426.23L335.5 420L333.5 412.08L327 410.64L327.25 400.47L328.97 393.34L333.79 382.87L339.23 375.09L344.4 373.87L344.7 367.44L348.21 363.18L354.57 362.51L359.72 355.51L361.02 350.92L365.3 341.84L366.63 336.29L371.23 339.63L377.41 337.91L386.11 330.04L386.67 324.43L383.54 318.11L386.85 311.67L386.58 305.54L380.58 299.27L374 297.41L367.69 296.41L367.44 310.25L364.2 320.63L359.56 329.05L355.26 321.21L356.59 312.31L351.27 304.31L345.33 314V301.32L337.07 298.75L341.01 292.38L335.01 277.17L330.5 271L324.63 268.72L319.38 278.9L319 293.71L324.18 298.93L328.94 306.72L327 319L323.43 318.68L320.56 328V316.89L313.67 312.79L309.72 314.91L310.23 322.32L303.75 322.04L296.85 323.9L289 318.54L284 319.49L279.59 313L276 310.05L272.44 311.28L267.03 311.84L264.17 316L268.71 321L263.87 326.91L259.14 319.91L255.35 322L243.35 323.38L235.35 320.85L241.6 314.93L235.6 308.74L231.25 309.54L225.13 307.44L214.73 302.85L207.93 297.5L202.55 296.75L200.87 300.49L195.41 302.57L194.81 292.81L188.89 301.55L181.37 289.94L178.3 288.52L177.3 294.72L173.98 297.72L170.93 292.33L163.66 295.58L157 301.24L150.4 299.68L145.01 303.68L141.11 308.87L136.48 307.73L129.48 301.73L121.19 298.66L116.36 296.86L109.62 292.95L103.7 295L100.27 293.31L91.73 292.08L82.36 287.9L77.83 289.23L71 287L71.27 283.91L63.76 283.1L61.76 285.72L58.54 279.57L51.82 276.67L45 284L41 283L32.57 289L28.24 290.53L23.7 296.73L22.64 302.94L17 308.62L9.12003 309.03L6.63002 315.41L12.74 319.2L17 324.2L20.16 329.96L25.63 334.29L29.24 341.17L19.85 341.6L20.46 336.06H16.81L6.89002 341.48L0.650024 346.02L6.27002 352.22L8.14002 356.43L14.65 358.92L20.93 357.76L24.44 360.03L25.79 357.75L30.51 355.5L33.24 355.37L29.95 359.37L32.44 361.22L33.26 365.85L29.88 368.95L26.65 368.09L23 372.89L20 371.33L16.41 372.05L14.82 377.05L11.2 382.39L9.48003 387.8L12.9 391.74V396.89L15.9 399.05L19.66 403.24L25.43 401.53L28.3 404.68L27.49 407.89L27.87 413.02H30.6L35.05 409.58L36.71 413.85L37.9 410.78L40.81 415.12L43.22 412.02L44.65 413.49L49.77 410.89L47.56 416L46.79 422.34L43.51 425.26L42.51 426.89L36.35 431.74L34.17 435L28.66 435.9L23.92 440.2L19.57 442.61L14.71 446.21L15.4 447.5L23.03 445.31L26.73 442.72L31.24 440.07L35.39 437.88L38.44 438.49L43.64 435.11L45.04 431.36L51.98 427.17L53.08 423.54L57.53 421.01L62.31 417.51L66.51 411.4L63.26 407.2L69.66 400.92L72.66 394.92L78.33 389.81L79.55 392.12L74.82 394.93L72.82 403.71L73.45 408.86L78.38 407.02L82.29 404.02L87.43 402.18L89.89 401.61L89 395.4L93.94 393.47L99.22 397.33L107.96 401.45L114.11 400.7L121.89 403.86L126.14 405.52L135.33 414.52L140.54 416.96L147.61 417.16L151.87 417.71L154.27 425.55L160 432.11L161.26 439.03L165.17 441.52L167.62 444.44L167.71 448.38L173.09 453.86L173.86 459.86L179.55 462.97L178.92 467.4L181.39 473.69L189.44 476.59L192.62 479.59L201.22 486.31H201.82L203.33 491.82L204.04 497.24L202.94 498.97L200.58 492.75L194.15 490.48L193.61 491.79L194.9 494.88L196.31 500.48L197.11 509.09L196 520.4L194.27 526.14L195.68 530.75L195.84 535.85L194.84 540.71L197.2 543.88L197.82 548.57L201.26 553.33L203.26 555.19L203.1 556.49L206.8 564.21L211.12 569.71L211.65 572.71L212.79 573.58L216.92 574.11L218.51 575.57L221 575.84L221.48 577.37L223.56 578.01L226.44 581.07L227.19 583.77L229 588.49L231.05 592.65L232.7 596.03L234.34 599.23L236.95 600.64L240.37 604.26L240.2 606.54L238.56 608.42L236.72 608.14L236.4 608.51L239.02 611.42L241.76 612.63L242.88 613.92L243.47 613.28L246.52 615.5L248.64 617.04L249.32 619.71L249.17 623.3L251.44 624.55L254.64 626.9L257.56 629.67L258.73 632.6H259.52L261.39 630.82L261.49 629.96L259.88 627.79L258.1 625.58L255.96 625.42L255.71 622.85L254.48 620.54L253.16 618.39L251.68 613.78L248.89 611.24L247.94 609.47L246.59 608.2L245.7 604.95L244.91 605.02L244.32 603.28L243.65 602.92L242.92 601.72L239.62 598.21L238.09 596.09L237.66 592.21L236.92 589.73L237.64 587.6L240.2 589L241.69 588.77L244.9 590.84L244.83 592.84L246.41 596.84L248.8 600.69L248.99 602.28L251.07 604.75L253.66 607.41L256.05 607.81L257.15 611.31L259.78 613.73L262.04 614.89L261.37 617.95L262.19 619.15L266 621.15L268.16 624.2L272.63 628L276.55 632.81L278.04 635.24L278.44 637.15L279.94 639.3V640.95L278.94 642.18L279.4 643.53L277.92 644L278.98 646.3L281.2 649.3L285.98 651.97L287.83 654.11L292.38 655.59L294.86 655.87L295.99 657.11L299.7 659.34L304.7 661.5L308.03 662.15L312.18 664.28L315.51 665.15L318.65 666.37L320.89 665.92L324.46 664.18L326.94 663.84L330.57 665.05L332.87 666.55L337.87 671.55L340.26 673.45L342.26 674.36L345.03 674.44L347.31 675.24L348.57 676.24L351.04 676.52L352.88 677.43L354.48 677.87L357.05 677.94L357.54 676.86L358.9 677.26L359.66 678.68L359.33 679.01L358.59 678.32L358.1 679.02L360.33 681.09L362.2 682.51L363.2 684.05L365.28 685.87L366.81 687.3L365.81 688.18L367.07 688.82L366.48 690.24V691.62L367.08 692.53L368.51 692.97L369.51 694.22L370.4 693.14L370.11 691.83L371.28 692.64L371.57 693.96L373.11 694.54L374.85 695.42L376.08 696.5L376.25 697.5L375.74 698.28L376.64 699.28L379.05 700.28L379.56 700.95L379.7 699.95H381.6L382.76 700.48L384.58 700.78L385.48 702.58L386.94 702.84L387.52 702.08L388.29 704.76L390.36 704.53L391 703.86L392.21 703.3L390.09 700.86L390.53 699.92L391.53 699.77L393.33 698.64L394.22 697.08L396.17 696.79L398.38 698.04L399.22 699.52L400.34 699.83L399.24 701.03L400.24 703.45L401.72 704.74L403.52 707.13L404.23 710.91L403.23 712.08L404.23 716.17L403.4 718.75L405.03 719.81L403.3 722L401.42 724.79L399.22 725.09L398.22 726.71L398.41 728.94L396.75 729.27L397.36 730.65L394.3 732.42L391.87 733.37L392.18 735.19L390.5 738.05L389.68 740.82L388.12 741.48L388.87 745.48L387.97 746.74L390.63 748.68L392.33 746.62L393.33 748.56L390.89 752L387.34 754.81L386 757.88L388.15 762.13L386.71 764.13L389.88 765.94L393.34 768.86L394.73 772.17L396.55 774.17L400.75 783.17L405.13 791.54L408.9 797.54L408.17 798.86L410.01 802.64L413.43 805.48L421.43 810.48L430.25 815.14L430.63 817.06L435.09 819.74L436.02 826.37L436.34 834.13L434.95 844.89L433.52 855.05L432.72 864.67L430.12 870.83L430.66 877.14L429.33 881.39L430.33 889.22L428.45 897.13L425.38 905.78L422.65 914.69L420.78 914.87L421.15 921.2L422.42 926.76L420.42 930.7L418.91 941.59L417.51 950.21L420.32 951.08L421.7 943.52L424.7 945.12L422.38 957.8L417.44 955.61L415.93 966.04L411.7 971.72L418.44 973.61L413.75 978.68L411.86 985.09L412.43 996.76L414.66 1001.42L413.41 1005.59L414.8 1010.17L420.33 1014.35L425.42 1019.51L430.42 1021.95L432.3 1021.77L433.02 1014.77L437.02 1012.12L439.16 1010.32L443.16 1010.38L445.03 1010.75L442.03 1006.56L440.6 999.18L442.41 995.92L446.47 993.19L449.36 985.19L454.61 981.41L456.14 975.48L451.89 974.16L447.52 969.43L448.79 964.63L452.28 961.4H456.48L457.48 958.04L458.14 951.83L461.71 948.04L465.8 946.16L464.48 943.04L462 945L459 943.2L458.38 937.29L460.1 935.76L464.37 937.9L468.92 937.08L471.59 935.02L470.77 932.08L471.68 927.74L470.75 924.32L475.63 924.9L484.54 923.71L491.13 920.71L495.4 913.52L495.63 910.81L492.85 908.41L493.46 904.64L487.81 900L488.11 897.19L490.82 900.19L493.82 900.02L497.93 902.34L500.34 901.76L503.62 902.84L508.62 899.84L510.54 896.46L513.48 893.46L515.48 888.46L518.48 886.01L522.39 881.88L527.32 872.88L530.43 870.09L531.43 867.62L532.26 862.55L531.52 859.8L532.17 856.09L535.93 851.21L541.16 847.33L546.16 845.91L549.29 843.75L556.29 841.89H561.12L562.12 839.01L565.72 836.92L566.47 832L570.98 825.81L571.77 819.53L573.18 817.69L573.65 814.61L574.89 807.47L574.57 798.86L575.81 795.5L576.92 795.41L580.21 791.41L583.04 786.28L589.31 779.99L591.57 777.05L593.34 769.63L592.6 766.92L591.19 761.13ZM388.14 611.76L389.14 611.93L389.08 613.15L388.08 612.98L388.14 611.76ZM393.29 529.13L389.94 530.87L387.65 531.67L385 533.32L381.79 534.11L379.57 533.81L376.83 532.58L378.35 530.27L380.79 530.65L384.09 528.74L386.03 527.06L387.35 526.78L389.8 527.39L390.98 526.45L393.15 525.69L397.02 524.94L397.1 525.53L393.29 529.13ZM394.63 520.82L395.98 520.09L399.11 519.2L402.87 518.36L404.87 519.52L406.1 518.17L407.51 517.31L408.46 517.76L408.97 518.76L409.23 521.15L405.89 523.15L402.25 522.64L398.76 522.42L396.45 523.19L395.09 523.5L393.32 522.93L394.63 520.82ZM373.79 502.45L374.66 503.88L377.99 504.68L381.38 504.74L384.98 505.4L388.98 506.64L390.43 508.64L393.31 513.46L391.88 515.53L388.27 514.67L386 510.79L386.56 514.79L384.44 518.24L384.67 521.16L384.31 522.87L381.43 524.87L381.21 522.37L380.41 518.8L378.76 518.19L376 520.88H375.11L374.89 519.33L377.33 516.85L377.74 514.01L377.38 511.16L374.09 508.69L370.31 507.42L369.69 509.83L368.69 510.47L367.9 513.58L367.49 511.47L365.71 512.98L364.6 515.08L363.44 518.13L363.22 520.74L364.7 524.53L364.57 528.53L362.77 531.46L361.87 532.28L360.67 532.93H359.16L358.75 532.53L357.55 529.39V527.83L357.67 526.33L357.11 523.33L357.95 519.86L358.95 515.55L361.26 510.72H360.58L357.32 514.72L356.72 513.98L358.46 511.71L361.11 507.63L364.11 507.05L367.58 505.77L371.07 506.45H371.22L375.14 505.88L373 503.4L373.79 502.45ZM338.86 500.45L341.86 497.7L345.02 495.07L349.55 492.88L351.36 490.25L353.88 489.19L354.88 487.55L355.88 486.67L360.01 488.03L363.07 488.19L364.14 489.09L365.62 492.88L370.62 493.88L369.84 495.75L371.6 497.69L370.84 500.17L372.7 500.98L371.77 503.16L370.42 502.9L369.48 501.09L365.12 501.65L361.17 503.09L358 500.67L355.48 499.84L356.91 496.39L353 498.56L349.43 500.67L346 502.32L343.28 500.09L338.82 501.44L338.86 500.45ZM215.7 345.35L215.58 346.23L215.94 347.59L215.78 349.29L208.43 354.45L208.51 353.24L210.25 349.19L209.75 348.46L203.05 352.86L200.05 351.29L200.29 349.81L204.08 344.71L203.95 343.54L192.4 341.93L192.65 340.81L216.7 331.68L217.28 332.74L213.64 337.34L225.07 336.34V337.9L224.42 340.06L223.42 344.06L222.83 345.06L215.7 345.35ZM249.24 537.57L247 535.92L246.88 535.69L246.12 532.97L247.4 534.09L248.22 534.69L249.04 534.15L249.2 534.67L249.4 535.85L249.24 537.57ZM247.24 387.24L242.76 391.69L235.2 393.54L230.31 393.7L223.11 389.54L221.84 389.09L221.67 387.6L222.58 387.28L228.7 389.41L233.7 386.01L236.7 383.37L233.12 377.93L232 375.63L233 375.91L239.18 379.02L244.06 382.69L251.06 378.87L254.34 374.26L258.08 372.69L261.63 374.69L263.01 375.31L262.89 376.49L258.52 378.19L253.3 379.8L247.24 387.24ZM274.24 407.66L260.44 409.88L254.07 414L253.57 412.93L253.74 412.3L262.91 405.45L274.25 407.45L274.24 407.66ZM294.58 424.12L294.75 425.12L289.1 432.31L288.75 431.79L289.35 429.42L289.66 429.36L289.95 430.54L291.89 427.54L290.84 424.68V423.22L293.89 418.6H294.89L296.45 419.82L294.58 424.12ZM305.99 457.12H305.35L304.21 456.95L301.43 455.9L300.64 454.05L301.85 452.46L301.44 451.24L301.55 450.95L301.89 449.82L302.29 448.82L303.36 448.93L303.13 449.81L302.52 451.09H303.91L303.74 451.9L303.09 454.73L304.83 455.82L306 456L305.99 457.12ZM311.34 464.01L306.73 456.45L307.99 451.1L312.42 448.02L313.1 450.13L313.81 454.89L319.37 469.67L320.06 474.67L317.89 476.37L317.03 474.23L315.63 468.96L311.34 464.01ZM368.72 686.85L366.49 685.34L366.07 683.57L367.5 683.39L369.84 685.29L370.65 686.98L368.72 686.85ZM441.54 811.25L441.11 811.38L440.71 811.04L440.31 810.76L440 809.95L439.31 809.48L437.88 808.57L436.75 807.69L437.22 807.37V806.8L437.14 805.92L438.43 806.17L441.14 808.37L441.26 808.5L442.26 810.5L441.54 811.25Z"/>
    <path d="M298.98 294.57L290.96 288.33L283.5 281.66L282.12 271.87L279.33 257.7L274.35 251.61L269.94 249.16L266.02 251.4L269.18 266.62L266.95 272.53L263.31 258.29L259.25 253.37L254.23 261L248.05 253.46L238.16 258L240.38 250.93L235.83 247.94L223.94 257.2L220.84 263.09L217.11 273.83L224.87 277.51L231.73 277.32L221.42 282.81L223.76 287.76L230.06 288.04L239.56 286.97L248.16 290.08L242.36 292.38L236.09 291.79L229.23 294.01L226.27 295.4L231.75 305.49L235.7 304.08L241.76 307.49L244.17 313.27L250.15 312.44L263.34 310.29L271.68 306.1L276.85 305.34L284.5 308.69L292.54 310.62L294.04 306.08L291.2 301.25L298.5 300.24L298.98 294.57Z"/>
    <path d="M283.34 246.31L279.96 242.86L274.01 243.49L272.5 245.69L279.43 256.4L283.34 246.31Z"/>
    <path d="M388.34 247.66L393.23 255.75L394.51 256.67L399.38 254.64L404.17 254.95L408.89 255.4L408.5 251.2L400.83 242.67L390.66 240.96L388.52 242.02L388.34 247.66Z"/>
    <path d="M445.94 293.29L442.07 287.97L431.34 282.66L426.71 273.85L418.46 277.01L417.88 270.89L411.76 264.03L401.9 256.55L397.69 262.44L388.9 266.66L389.56 257.04L381.94 241.11L370.67 247.56L366.57 259.76L363.06 250.38L366.34 240.26L354.86 244.47L350.29 250.81L346.87 264.16L348.28 278.51L354.59 278.57L349.95 284.8L353.64 289.49L360.85 291.49L370.25 295.31L386.43 298.2L394.49 296.54L396.87 292.71L400.37 297.14L404.29 297.86L408.99 305.74L406.14 308.88L415.15 313.04L421.95 318.89L423.67 322.93L424.89 328.06L419.14 339.05L417.59 344.52L419.07 348.37L409.93 349.73L401.58 349.92L398.65 357.64L402.41 361.17L415.26 359.54L415.19 356.55L421.66 361.54L428.29 366.74L426.74 369.55L432.13 374.35L441.66 379.96L453.71 383.76L452.99 380.44L448.36 374.61L442.08 366.08L453.23 374.01L458.83 376.65L460.37 369.61L457.47 359.61L455.64 356.87L449.61 352.05L444.94 345.84L445.5 339.58L451.25 338.2L458.23 348.67L463.71 353.2L471.5 340.72L472.89 332.89L465.9 332.14L459.51 321.5L452.45 318.91L441.99 311.03L450.14 305.26L445.94 293.29Z"/>
    <path d="M316.14 245.53L314.99 240.96L307.06 242.97L301.76 239.62L296.5 247.25L301.39 257.2L292.32 255.35L292.23 260.12L303.27 271.3L306.35 276.66L310.63 277.81L317.92 272.4L318.72 259.38L311.99 252.91L316.14 245.53Z"/>
    <path d="M1373.62 240.88L1369.4 247.09L1370.18 247.91L1379.29 249.64L1386.03 249.53L1385.49 245.45L1379.17 239.4L1373.62 240.88Z"/>
    <path d="M328.81 267.2L333.58 256.22L338.88 253.29L345.52 239.41L337.03 235.5L327.77 234.93L323.36 239.34L321.04 246.05L320.97 253.69L323.74 266.66L328.81 267.2Z"/>
    <path d="M200.71 282.9L212.41 276.05V270.13L217.92 259.97L228.82 249.36L234.4 245.45L229.63 238.79L225.31 234.1L213.96 233.2L207.62 229.78L192.59 232.35L196.94 242.23L193.09 252.42L189.59 264.74L188.1 269.44L198.36 276.88L200.71 282.9Z"/>
    <path d="M1412.57 225.77L1417.7 219.04L1406.55 214.48L1398.27 211.81L1397.2 217.49L1405.46 224.27L1412.57 225.77Z"/>
    <path d="M329.31 227.4L331.73 220.83L330.11 215.35L326.23 209.13L319.83 213.91L317.47 221.72L322.86 226.14L329.31 227.4Z"/>
    <path d="M1372.74 223.08L1389.12 223.56L1392.61 210.63L1376.55 201.01L1364.81 200.2L1358.95 203.66L1356.56 215.95L1365.36 227.08L1372.74 223.08Z"/>
    <path d="M304.19 222.25L311.52 220.49L313.55 207.41L313.4 197.96L310.01 189.15L309.67 191.68L303.42 190.58L296.72 197.06L291.94 196.46L292.22 210.61L299.5 209.24L299.41 219.5L304.19 222.25Z"/>
    <path d="M224.63 216.65L230.84 219.74L250.92 217.67L241.69 225.25L242.26 230.69L249.02 230.31L260.23 223.04L275.28 220.4L277.99 212.11L277.2 203.29L272.55 202.49L268.59 205.54L266.85 198.99L265.35 189.97L260.76 187.72L256.69 194.7L263.04 212.23L255.28 210.88L247.38 200.12L234.87 193.77L230.69 199.04L224.63 216.65Z"/>
    <path d="M981.02 264.25L976.48 267.34L977.13 275L985.17 278.73L986.35 284.78L1000.87 286.53L1003.5 285.37L995 274.08L994.09 262.17L1001.06 247.66L1007.68 232.09L1021.49 215.97L1035.06 207.49L1050.81 198.39L1053.79 192.52L1050.7 184.86L1042.06 187.41L1034.44 194.53L1019.65 198.05L1004.98 209.81L995.04 219.09L996.24 226.81L985.6 241.12L989.69 243.05L980.87 256.17L981.02 264.25Z"/>
    <path d="M356.01 230.73L365.13 230.43L377.88 227.87L383.57 229.89L390.19 226.31L392.97 221.8L391.97 214.63L387.21 207.93L379.99 206.66L370.94 208.2L363.88 212.07L357.39 210.58L351.4 209.8L348.58 205.5L343.47 201.37L344.49 194.32L340.65 188.01L331.9 188.07L326.97 181.73L317.81 180.48L316.14 188.55L321.29 194.5L330.48 196.8L334.94 204.87L335.48 213.75L337.02 223.25L348.83 228.67L356.01 230.73Z"/>
    <path d="M214.9 201.75L223.16 193.74L227.31 192.81L230.74 186.1L231.35 170.61L225.25 173.65L218.43 173.36L209.31 186.33L201.76 200.57L207.79 204.56L214.9 201.75Z"/>
    <path d="M330.72 173.2L331.25 170.84L328.13 166.95L319.18 166.64L320.36 172.48L328.69 173.79L330.72 173.2Z"/>
    <path d="M258.06 169.53L259.55 163.22L253.28 159.84L246.79 162.04L243.19 168.8L249.78 175.47L258.06 169.53Z"/>
    <path d="M847.74 174.73L857.67 166.24L851.26 161.42L849.49 153.22L840.28 157.62L842.97 164.52L839.9 169.95L847.74 174.73Z"/>
    <path d="M260.39 149.93L254.61 145.35L252.23 144.3L247.67 151.08L247.6 154.26L254.98 154.28L260.39 149.93Z"/>
    <path d="M311.68 161.35L315.3 166.3L321.87 161.91L323.08 154.04L317.77 146.22L315.18 144.71L309.42 143.79L309.77 153.16L311.68 161.35Z"/>
    <path d="M284.63 148.25L280.34 154.88L290.23 155.69L297.55 162.72L304.8 165.09L303.07 156.09L299.67 145.44L287.66 136.96L278.93 133.69L279.25 142.73L284.63 148.25Z"/>
    <path d="M1214.79 156.49L1216.11 147.43L1204.84 134.2L1201.5 132.64L1197.85 135.32L1189.73 164.82L1214.79 156.49Z"/>
    <path d="M806.32 162.6L812.99 168.72L808.95 176.06L818.51 188.18L823.87 187.43L825.98 170.76L829.88 166.81L832.35 150.81L843.54 141.85L828.9 123.94L823.3 115.11L816.78 116.01L815.09 124.63L808.76 124.98L806.32 116.16L794.21 125.18L797.66 143.86L806.32 162.6Z"/>
    <path d="M836.22 120.43L837.01 127.27L850.11 131.34L863.01 128.47L869.6 114.98L860.89 105.79L849.65 99.03L845.15 107.09L838.7 100.64L824.98 108.13L829.84 119.98L836.22 120.43Z"/>
    <path d="M954.46 110.02L959.28 116.16L964.47 111.9L965.09 107.57L969.09 105.57L975.06 102.03L976.78 97.85L970.18 91.76L965.99 96.36L963.44 102.89L962.53 95.53L955.78 95.86L947.11 100.86L956.99 101.7L954.46 110.02Z"/>
    <path d="M1162.51 130.69L1169.89 139.78L1182.27 146.45L1191.96 143.58L1193.06 121.99L1182.83 96.56L1174.19 82.26L1164.58 88.76L1153.03 107.54L1159.1 112.71L1162.51 130.69Z"/>
    <path d="M325.68 132.01L333.81 131.82L330.29 138.16L330.23 146.56L335 155.69L344.21 158.5L352.07 156.93L360.28 139.92L366.39 132.85L361.03 124.98L357.52 108.1L350.23 103.05L342.75 97.2199L337.07 82.0599L326.74 83.5499L328.68 90.1199L324.13 92.0899L321.05 100.53L317.96 112.34L320.78 123.86L325.68 132.01Z"/>
    <path d="M346.9 81.97L350.6 93.53L358.46 102.86L374.01 101.13L384.02 104.26L377.08 113.85L373.57 111.04L361.42 109.92L363.31 123.09L369.58 132.66L368.32 140.9L360.44 146.38L356.84 155.06L364.05 159.26L370.11 172.81L358.23 163.77L355.52 165.26L357.71 180.14L349.49 184.63L350.05 193.91L358.45 194.89L365.06 197.17L378.12 194.25L389.74 199.44L401.61 188.03L401.51 183.25L393.92 184.01L393.3 179.5L399.5 173.42L401.61 165.26L408.48 159.19L412.7 151.64L409.03 140.38L412.1 136.17L405.97 133.19L419.43 130.61L422.26 125.62L431.43 121.49L439.03 100.13L446.27 92.29L456.76 74.64L447.08 74.82L451.11 68L461.86 61.65L472.7 47.53L472.9 38.45L464.76 28.88L455.22 24.24L443.34 21.37L433.71 18.99L424.09 16.62L411.26 22.92L408.9 18.91L395.31 20.44L387.34 24.53L381.47 30.32L378.1 48.93L373.3 39.45L367.79 37.65L361.25 50.26L352.53 55.57L347.34 56.64L340.73 62.72L341.7 73.26L346.9 81.97Z"/>
    <path d="M642.33 292.49L630.62 291.93L635.78 284.93L634.26 275.62L639.75 283.52L643.18 288.69L651.1 286.12L649.42 275.09L643.59 266.4L637.59 262.77L639.88 258.81L648.67 264.9L648.62 258.36L643.05 248.07L649.24 248.02L655.51 245.63L656.96 240.05L651.81 233.49L661.68 232.3L655.93 217.79L660.68 216.19L659.63 200.92L651.43 190.93L658.74 184.78L665.68 183.96L660.35 170.74L660.21 146.56L663.78 131.34L668.99 113.1L658.69 111.85L672.9 107.3L675.41 101.13L693.52 81.04L691.03 68.18L677.71 62.16L656.12 74.1L644.81 85.08L649.69 67.72L645.99 56.38L637.37 66.08L623.98 55.11L608.25 58.66L606.01 52.89L629.93 49.67L646.93 48.2L655.14 35.03L627.34 5.55997L591.84 0.589966L576.13 4.41996L570.46 18.61L554.87 16.92L539.95 38.48L539.34 52.89L549.9 69.97L540.67 59.81L534.43 57.28L523.83 44.95L512.04 62.92L507.19 52.89L493.53 53.19L479.87 58.28L469.34 66.61L471.19 80.18L464.72 83.32L449.34 102.86L445.46 113.41L457.46 122.54L455.74 131.49L439.46 142.82L422.63 153.71L422.02 162.19L432.04 170.8L451.06 176.14L442.11 177.22L430.44 183.5L438.16 195.65L443.32 201.6L454.17 200.24L466.04 199.49L475.48 200.84L487.41 211.45L487.35 218.78L493.01 225.42L498.36 242.7L501.89 253.4L504.59 258.99L499.63 272.49L503.34 275.95L507.77 274L511.75 278.76L519.38 287.37L510.31 283.8L506.19 284L504.45 291.1L504.75 299.91L510.2 304.03L514.19 302.25L516.61 300.35L521.69 295.81L520.76 305.74L519.01 310.91L512.32 315.43L507.92 329.17L510.89 333.17L509.29 341.37L515.44 351.32L516.05 360.68L518.3 367.27L526.01 379.45L528.97 388.66L533.28 393.72L542.17 393.76L548.73 401.12L554.99 400.57L557.27 391.74L559.26 384.04L557.48 376.57L564.72 368.72L566.97 362.1L567.03 354.87L570.84 348.33L577.23 345.81L583.14 343.15L586.22 342.7L595.78 334.94L601.96 322.83L606.55 318.27L611.46 318.22L624.47 314.07L636.54 304.35L648.46 293.2L642.33 292.49Z"/>
    <path d="M1592.67 342.65L1584 332.24L1571.93 330.55L1572.93 338.7L1569.93 335.94L1570.31 328.94L1558.65 317.3L1547.79 308L1541.56 302.55L1528.78 296.46L1519.54 297.22L1505.35 293.6L1503.35 299.34L1506.94 307.39L1501.44 311.33L1493.69 300.23L1485.27 301.64L1476.88 299.15L1469 299.48L1463 302.08L1457.52 298.45L1458.06 288.91L1454.36 283.36L1445.51 281.12L1427.57 283.7L1416 273.15L1412.22 264.67L1372.08 255.06L1366.21 261.51L1369.42 274.82L1362.15 272.82L1358.88 276.74L1350.27 272.45L1342.7 276.22L1335.57 269.88L1331.28 284.43L1324.28 278.89L1318.7 267.82L1321.33 261.73L1319.33 252.15L1312.16 244.02L1305.06 244.09L1295.63 241.33L1295.38 253.18L1276.79 250.91L1275.71 243.65L1261.45 241.04L1254.34 243.54L1252.34 247.6L1250.07 237.46L1246.07 240.46L1239.5 236.46L1234 234.2L1237.34 229.32L1249.02 219.93L1253.93 214.79L1255.04 205.5L1251.47 198.61L1241.47 189.35L1228.47 189.09L1224.41 193.76L1223.21 184.19L1213.14 181.14L1219.14 176.14L1211.52 169.47L1201.08 178L1196.83 186.44L1195.61 194.75L1187.44 194.43L1177.44 204.31L1173.8 200.19L1162.13 201.91L1160.65 206.91L1148.91 209.31L1140.3 218L1135.19 218.47L1130.05 229.6L1133.66 238.13L1124.03 240.23L1113.34 239.53L1105.61 242.74L1106.06 259.04L1110.06 271.13L1101.84 262.92L1092.62 263.69L1085.18 269.37L1087.18 279.47L1082.42 276.94L1084.17 263.21L1081.84 254.97L1079.62 255.32L1080.62 265.81L1072.62 275.4L1078.39 286.55L1074.85 299.68L1075.91 306.68L1080.77 307.68L1078.7 315.68L1081.29 322.45L1077.45 327.98L1076.26 333.62L1071.37 336.49L1069.61 340.49L1064.53 338.87L1073.23 322.69L1075.14 314.74L1070.24 307.24L1071.24 289.68L1069.8 280.26L1067.04 275.85L1071.25 264.29L1070.33 256.08L1058.56 252.08L1055.25 255.08L1052.34 268.44L1044.14 281.12L1044.27 285.46L1046.65 295.76L1045.18 301.83L1050.54 303.07L1050.67 305.74L1055.19 312.25L1052.19 318.56L1036.09 304.56L1029.94 300.62L1016.81 296.74L1014.5 300.96L1019.15 308.22L1014.15 316.29L1009.09 308.96L1002.49 314.03L994.16 314.36L990.97 318.47L985.46 317.22L989.84 309.86L986.49 309.26L971 319.72L961.72 325.31L960.63 332.63L953.76 335.08L950.26 331.21V324.8L955.89 323.36L953.35 316.73L940.92 312.85L944.19 320.29L942.01 327.29L945.72 334.09L943.13 341.72L938.98 337.85L934.88 337.22L924.52 347.91L927.52 355.65L923.78 358.18L913.03 351.68L910.11 355.49L912.88 360.1L912.31 365.03L908.83 362.41L903.11 359.29L902.54 343.56L895.29 335.47L898.56 334.04L918.4 342.47L925.65 339.55L930.59 333.68L930.29 326.08L926.88 320.51L910.09 306.8L897.92 303.8L890.62 296.09L886 300.57L881.13 292.46L886.86 288.92L873 279L865 281.73L856.89 281.11L850.12 292.22L842.81 291.52L833.06 297.21L820.83 313L813.39 322L802.71 343.84L794.58 358.6L785.8 369L774.07 377.22L769.97 383.38L771.38 404.38L772.97 413.7L779.11 418.01L785.04 416.01L793.82 406.06L796.82 411.38L800.21 423.29L803.93 432.52L805.34 440L810.49 439.64L813 433.37L818.39 434.15L820.92 426.59L822.61 412.59L827.23 410.59L831.32 400.71L827.06 395.71L823.9 389.26L827.14 375.89L835.72 367.42L842.79 359.27L842.1 352.9L846.41 345.45L854 342.4L860.17 347.52L860.64 352.01L857.64 354.22L847.47 365.35L843.47 371.61L841.35 377.3L843.51 385.88L842.51 394.97L846.82 397.97L849.39 402.84L856.62 400.97L864.43 397.68L872.5 396.97L877.16 401.23L872.11 406.1L867.52 406.36L862.7 404.91L857.1 406.18L851.48 408.61L851.87 413.56L854.68 416.56L856.32 415.5L855.8 420.45L854.95 426.79L851.38 426.95L847.85 420.79L843.67 423.62L841.48 428.76L841.33 434.81L842.27 441.43L836.14 443.94L835.14 447.32L830.85 447.22L830.52 445.35L826.08 444.05L820.48 446.65L813.55 450.17L810.55 452.39L808.45 449.98L803.45 446.98L800.95 449.07L796.44 450.49V447.79L792 446L791.92 443L790.71 439.21L793.91 433.51L795.24 434.38L796.32 431.38L793.91 430.16L793.38 427.89L794.7 425.22L794.85 420.98L791.27 423.31L789.71 425.58L785.8 426.09L784.52 428.54L783.78 430.72L783.91 438.85L785.72 443.18L785.92 447.54L786.92 450.39L783.92 454.1L783.1 452.45L779.39 452.85L778.51 454.44L774.82 454.23L768.74 457.34L764.81 468L762.52 470L759 471.4L755.12 472.82L753.79 478.56L743.44 483.92L739.24 480.98L740.65 488.69L733.19 486.94L727.43 488.41L727.87 493.29L734.67 495.83L737.94 499.14L742.53 505.93L741.68 518.45L739.39 522.14L732.2 521.94L728.51 522.26L723.78 521.26H717.78L712.35 520.16L706 524.56L707.82 527.19L707.59 531.46L707.79 533.46L708.67 535.59L708.77 538.08L707.85 541.6L707.53 543.94L705.76 546.04L705.41 549.78L706.47 551.93L708.47 552.46L708.88 555.92L708.2 560.29L710.5 559.68L712.84 560.46L714.63 559.02L718.78 559.88L720.04 563.07L721.68 564.93L723.86 565.38L725.56 563.3L728.34 561.35L732.57 561.46L738.22 561.37L741.36 557.09L744.72 555.98L745.72 552.31L748.29 549.77L746.56 546.51L748.27 541.8L751 538.57L751.4 536.57L757.09 535.32L761.3 531.32L761.07 527.83L761.58 524.19L768.05 522.19L776.81 523.84L780.81 520.38L782.66 519.93L785.23 517.07L787.23 516.23L790.85 518.23L793.06 518.95L794.45 524.95L797.45 528.43L801.51 532.32L804.99 535L808.27 535.39L810.2 537.75L813.05 538.82L814.36 541.34L816.21 542.06L817.57 544.98L819.3 548.31L818.3 549.52L817.39 552.52V554.25L819.25 553.81L821.62 548.94L823.48 548.61L824.01 545.61L820.79 543.48L822.66 539.72L826.53 540.72L828.99 543.43L829.82 541.35L829.36 540.26L825.55 537.21L822.29 535.43L818.29 533.29L819.54 532.1L818.57 531H815.09L810.09 526.15L807.86 521.15L803.69 518.05L802.23 514.88L802.78 513.11L802.53 509.98L806.14 507.72L809.68 508.65L808.68 509.23L808.53 509.33L808.42 511.52L809.73 513.63L811.1 510.91L813.96 511.91L814.04 514.02L816.04 516.65L815.15 517.11L818.89 521.65L822.95 523.47L825.53 525.66L829.71 527.89L831.63 529.09L833 531L833.93 531.46L834.68 532.4L834.08 534.25L833.7 538.25L834.08 541.03L836.5 543L836.59 544.28L837.34 544.68L837.64 546.32L839.92 549.59L841.65 552.2L842.43 555.95L844.1 560.42L847.74 562.83L850.74 562.76L849 557.87L851.82 557.29L850.51 554.42L854.62 555.91L854.55 552.73L852.35 551.09L849.88 548.46L851.55 547.21L849.33 544.51L848.33 541.04L849.16 539.76L851.51 542.76H854L856.26 541.82L853.18 538.54L858.56 537.01L860.88 537.57L863.58 537.73L863.52 538.94L864.92 541.66L868.63 538.51L870.53 536.7L875.81 536.37L876.62 534.93L872.74 533L872.22 530.7L870.78 527.28L872.4 522.94L874.71 520.4L875.95 512.91L877.31 513.49L879.46 512.14L879.35 510.52L882.8 505.82L884.45 502.28L888.56 501.48L888.87 503.89L895.78 505.51L897.07 506.97L892.81 509.09L892 510.3L896.85 512.15L895.85 515.09L898.33 516.35L904.33 512.74L909.19 511.65L910.06 509.4L905.53 509.78L903.35 508.25L903.09 504.25L906.92 501.85L911.08 501.51L914.08 499.4L917.63 498.88L921.63 497.88L921.75 499.3L915.2 501.96L917.68 504.51L913.99 509.85L910.76 510.85L914.6 514.55L919.67 516.89L925.33 522.1L926.96 523.97L929.42 524.67L931.99 526.91L933.1 531L932.44 533.55L927.19 536.64L923.37 536.11L918.19 537.02L911.81 534.73L904.06 530.54L896.7 530.67L891.52 532.36L886.18 536.2L877.71 535.42L875.84 539.88L869 540.12L864.07 545.66L866.89 548.4L864.72 552.83L867.97 555.95L870.6 561.5L875.46 561.4L879.76 564.34L882.83 563.68L883.83 561.39L888.62 561.58L892.22 564.58L898.97 563.95L902.02 560.77L905.74 562.05L908.45 561.57L906.77 563.65L908.4 566.15L907.31 568.39L907.73 572.55L907.65 572.73L905.43 576.52L903.85 580.86L903.73 580.91L903.1 582.26L902.19 586.26L901.02 588.7L901.32 589L900.03 590.72L897.84 592.02L894.38 591.73L890.82 590.51L889.82 592.2L888.61 589.62L885.45 588.97L881.53 589.39L879.7 590.89L876.28 592.53L874.22 591.72L869.81 590.19L865.53 588.81L859.62 588.9L858.54 587.18L854.12 586.56L852.7 585.66H851.05L849.54 583.31L843.54 582.23L840.48 582.95L837.28 585.42L835.88 587.96L836.88 591.96L834.75 594.34L832.58 595.68L827.88 593L821.62 590.82L817.62 589.82L815.54 585.18L809.64 582.82L805.92 581.94L804.06 582.39L798.84 580.57L797.15 579.74L796 577.19L793.7 577.1L792.86 574.18L795.78 571.47L796.37 566.75L794.83 565.39V562.85L797.05 560.13L796.73 559.06L793 561.11L793.13 558.29L790.02 557.62L785.18 559.87L782.18 560.21L780.38 558.91L775.63 558.96L771.44 561.15L769.2 560.33L761.85 560.77L754.32 561.77L750 563.45L747.19 565.71L742.38 566.71L738.11 569.71L736.18 569.65L731.58 568.45L727.35 568.82L724.67 566.51H721.4L720 569.86L717 575.46L713.7 577.66L709.31 580L706.45 583.57L705.85 586.35L704.16 590.84L705.27 597.25L701.56 601.52L699.34 602.88L695.83 606.33L691.7 606.89L689.39 608.89L686.57 613.99L683.57 615.8L682 618.86L681.9 621.48L680.72 624.34L679.23 625.13L676.75 628.22L675.23 631.64L675.51 633.27L674.06 635.77L672.35 637.08L672.14 639.3L671.95 641.3L674.29 643.35L675.44 645.6L675 648L675.54 650.34L676 655L675.44 659.39L674.2 661.68L674.59 664.18L673.53 666.55L671.38 669.78L669.38 670.66L671.6 672.3L673.43 675.86L672.87 677.86L673.6 681.35L673.88 682.35L675.23 683.35V684.05L676.23 685.32L678.1 685.63L680.47 687.52L681.76 688.26L682.41 689.26L682.92 691.26L684.03 692.15L685.16 692.74L686.89 694.5L688.84 697.17L689.39 700.49L690.16 702.13L692.48 704.53L695.68 706.34L696.88 706.66L699.88 709.55L703.67 711.99L707.67 715.39L712.26 717.52H713.42L714.28 717.64L718.68 716L721.77 714.71L727.03 713.94L729.88 713.88L732.98 714.76H734.98L738.98 716.03L742.98 714.74L745.45 713.2L752.45 710.59L756.02 709.59L759.7 709.07H763.62L766.96 709.01L770.11 711.95L771.57 715.18L773.95 717.97L777.5 718.07L779.22 717.07L780.9 717.31L785.51 715.7V716.93L786.65 717.58L787.55 719.58L789.55 720.34L791.29 723.28L790.64 726.79L789.12 731.79L789.95 732.46L789.05 735.75L788 738.85L787 740.27L786.86 741.74L789.56 746.34L792.49 750.01L797.06 754.5L800.71 759.23L801.9 762.58L802.52 763.97L802.1 764.84L804.32 767.67L805.24 770.67L806.59 775.02L805.22 776.8L804.98 777.73L806.07 780.44L807.25 783.18L808.59 784.79L808.82 787.36L808.35 790.72L806.92 792.72L804.37 795.72L803.31 797.59L801.87 801.72L801.64 803.72L800.11 807.94L799.49 812L799.91 814.93L800.18 818.51L803.8 823.08L804.8 826.08L807.14 831.77L809.44 835.71L811.16 837.71L811.73 840.34L811.83 846.12L813.32 853.65L814.42 857.22L815.42 862.07L817.16 865.72L820.46 869.53L823.65 876.15L825.88 880.51L828.79 885.38L828.91 889.38L827.47 890.38L828.92 893.93V897.06L829.52 898.5L829.72 897.76L831.64 900.15L833.14 900.25L835.02 902.18L837.02 902.05L839.77 900.05L843.56 899.2L848.14 897.08L849.98 897.36L852.68 896.7L857.5 897.7L859.7 896.7L862.4 897.49L862.97 896L865.23 895.73L869.88 893.66L873.24 891.25L876.37 888.09L881.37 882.7L883.89 879L885.13 876.35L887.01 873.75L887.88 873.02L890.88 870.45L892.03 868.17L892.56 863.99L893.67 860.35L894.05 857.74L892.91 857.41L892.53 855.33L894.53 853.5L899.88 850.85L903.54 849.2L905.4 847.46L906.06 845.46L905.06 844.63L905.78 842.38L905.91 837.66L905.13 837.9L905.07 836.47L904.19 833.66L902.09 830.06L902.46 826.68L904.29 825.6L907.39 822.25L909.1 821.4L914.1 816.4L919.1 814.15L923.16 812.38L925.99 809.51L927.71 806.3L929.04 803.01L928.26 800.76L928.09 793.62L927.54 789.62L927.72 785.1L927 783.1L925.37 782.1L923.53 777.66L921.98 774.83L922.27 772.69L922.02 771.33L923.24 768.62L923.1 767.46L920.26 765.83L919.99 763.3L922.05 757.79L923.84 756.32L924.7 753.32L926.13 751.52L926.76 748.39L928.43 748.06L929.53 746.2L932.64 744.43L933.64 743.37L934.64 741.03L939.5 735.65L943.64 732.27L950.29 727.85L954.74 724.25L960 718L963.79 713L967.61 706.45L970.35 700.73L972.49 695.73L973.74 690.86L974.68 689.23V686.85L975.09 684.21L975 683H973.31L971.21 684.55L968.85 685.01L966.85 685.68L965.43 685.77L962.9 685.94L961.32 686.76L959.11 687.06L955.2 688.46L950.36 689L946.17 690.16H943.97L941.97 688.27L941.1 686.39L939.65 685.56L937.74 684.32L940.28 683.23L940.42 681.34L939.42 679.93L937.23 678.57L935.84 677L933.43 674.36L930.96 671.74L924.9 667.4L922.46 665.15L921.24 660.89L918.66 655.5L916.23 653.77L914.53 652.62L912.9 647L912.25 642.12L913.25 641.26L911.81 636.57L911.04 635.57L905.86 631.25L905.72 628.1L906.6 627.25L902.6 621.84L901 619.05L899.36 616.37L896 608.6L893.27 603.53L891.43 598.16L891.89 597.69L895.06 604.98L897.06 607.24L898.54 608.85L899.54 607.98L900.75 605.36L901.75 601.53L903 599.53L903.15 600.26L902.59 602.26L902.4 604L901.71 606.77H903.92L906.19 610.22L908.89 614.22L910.63 617.91L911.93 619.01L913.16 621.56L912.92 622.66L914.38 625.46L916.78 626.46L918.87 628.36L921.41 633.72L921.23 636.57L921.74 639.89L924.68 644.42L926.68 645.2L929.75 648.45L931 652.28L933.37 656.21L935.67 657.88L936.01 659.73L937.35 661.13L937.92 663.13L938.12 665.13L937.59 666.02L938.04 668.13L937.15 668.35L938.43 670.25L939.3 673.64L940 675L939.87 677.5L941.02 680.16L944.1 680.39L945.52 679.77L947.72 679.87L948.41 678.71L949.57 678.38L950.57 677.18L951.7 676.92L955.43 676.68L958.26 675.8L960.86 673.9L962.19 674.17L964.19 673.92L968.19 670.68L975.29 668.54L979.71 666.59L979.82 665.02L980.68 662.96L983.9 661.72L985.9 661.45L988.9 659.89L991.35 660.32L993.5 659.03V657.15L995.24 655.98H998.01L999.01 654.98L999.45 652.7L1002.22 650.94H1004.22L1004.64 650.36L1004.09 647.21L1004.8 644.81L1005.72 643.68L1007.72 643.93L1009.38 640.68L1011.25 639.15L1011.96 637.81L1013.58 634.96V634L1011.99 633.39L1010.79 631.79L1008.79 629.01L1006.16 628.13L1002.9 627.49L1000.42 625.73L998.42 622.39L997.81 618.51L998.39 617.61L998.81 615.61L998.26 615.17L996.97 616.87L994.16 619.87L990.85 623.02L987.85 626.32L985.17 626.18L981.49 626.05L978.01 626.82L977.85 625.49L977.06 625.72L976.22 623.85L977.22 620.97L977.14 618.09L975.79 616.54L974.58 617.07L973.38 619.66L973.68 623.23L973 622L972.4 620.39L971.12 619.01L970.56 617.35L971 615.7L970.74 613.7L967.74 611.6L966.98 609.85L964.79 608.7L963 604.3L961.57 600.48L961.96 599.31L961.03 597.05L963.67 597.3L965.33 595.3L968.16 597.01L970.55 596.18L973.83 602.98L976.83 607.78L981.11 609.21L985.59 613.04L991.02 614.7L995.51 612.29L998.92 611.4L1001.05 612.28L1002.94 618.36L1007.94 619L1012.79 620.14L1021.15 621.62L1027.41 620.93L1034.63 620.84L1042.82 619.91L1046.25 623.65L1047.58 627.15L1050.83 628.38L1056.05 632.49L1057.36 634.38L1055.22 636.12L1061.03 641.9L1064.16 642.47L1070.63 639.62L1071.49 644.08V649.8L1072.82 655.8L1074.66 664.8L1078.71 671.14L1079.48 674L1080.58 679.71L1082.94 684.08L1084.5 686.23L1086.2 690.79L1088.26 697.1L1092.47 701.3L1094.25 700.01L1095.75 696.95L1099.75 695.67L1098.4 694.19L1100.4 690.75L1102.7 690.53V682.83L1104.58 678.51L1104.35 674.72L1103.42 668.72L1104.76 665.2L1106.83 664.95L1110.83 663.3L1113.04 662.15V660L1117.46 657L1120.81 654.06L1125.81 648.53L1132.21 645.34L1134.58 642.54L1134.33 638.96L1139.8 637.96H1142.8L1143.43 636.21L1145.15 636.64L1146.41 637.17L1147.06 636.3L1148.95 637.3L1150.34 634.63L1149.94 632.63L1154.03 632.82L1155.89 635.62L1156.74 637.93L1156.99 640.37L1158.26 642.84L1161.42 646.71L1164.02 647.31L1163.47 649.01L1166.96 654.42L1167.89 658.8L1166.35 664.54L1169.1 665.63L1171.6 666.04L1176.6 662.74L1179.53 660.42L1181.45 664.26L1182.25 670.08L1183.7 675.57L1185.51 677.94L1185.14 682.94L1186.64 685.62L1185.27 689.1L1185.7 692.45L1184.39 696.77L1183.91 699.57L1184.75 702.07L1185.48 699.43L1187.63 701.56L1190 704.09L1190.76 706.31L1192.51 708.02L1193.51 709.92L1193.03 713.17L1194.63 715.6L1195.24 719.3L1197.81 722.3L1198.33 724.57L1203.59 728.1L1207.79 731.4L1210.95 731.1L1211.03 729.6L1209.28 725.66L1207.72 724.44L1207.39 721.8L1206.96 720.27L1207.43 718.27L1207.18 715.27L1205.31 712.27L1202.69 709.58L1201.69 709.16L1199.38 706.83L1196.69 706.32L1194.21 703.75L1193.41 699.87L1191.61 695.76L1188.71 695.63L1188.41 692.36L1189.85 688.36L1192.25 681.73L1192.61 676.73H1196.52L1195.87 680.32L1199.67 680.23L1203.67 682.32L1205.92 687.01L1207.72 689.36L1211.44 690.02L1214.74 692.59L1213.49 695.65L1215.1 698.53L1220.65 694.34L1224.27 690.58L1229.36 687.67L1233.07 684.67L1233.67 676.67L1231.67 668.18L1228.97 664.47L1224.97 661.61L1220.81 655.53L1217.41 650.59L1218.41 647.32L1222.11 642.84L1228.05 638.77L1230.15 637.99L1236.15 639.52L1235.15 641.36L1236.32 644.81L1238.78 644.53L1240.3 639.53L1245 638.8L1251.21 636.39L1253.72 634.01L1255.26 635.57L1257.98 633.43L1262.98 632.88L1269.16 628.81L1275.27 624.32L1279.4 618.46L1283 611.95L1286.24 606.52L1288.73 606.06L1289.85 602.06L1290.54 597.9L1287.92 596.31L1286.86 593.57L1289.65 592.15L1289.72 588.29L1286.72 584.29L1284.01 579.43L1282.27 574.17L1277.49 571.17L1279.77 567.36L1284.09 564.61L1286.17 561.61L1292.46 560.06L1291.74 557.13L1288.86 556.99L1284.92 554.8L1279.92 558.8L1276.4 557.17L1276.25 554.65L1272.62 553.72L1270.27 549.89L1272.54 547.23L1276.9 546.95L1279.64 543.23L1284.64 539.17L1288.51 537.11L1290.86 540.18L1287.34 544.08L1288.27 546.32L1285.91 548.98L1290.69 547.42L1293.97 544.73L1300.18 543.04L1302.27 544.6L1304.87 545.22L1305.16 546.22L1304.03 549.31L1304.43 550.31L1303.43 550.97L1302.21 553.47L1303.41 554.37L1304.56 554.89L1304.71 555.94L1306.02 555.48L1306.55 554.42L1308.71 555.49L1311.71 560.27L1308.41 561.2L1310.41 566.94L1309.59 571.03L1310.09 573.97L1314.09 573.51L1317.64 571.26L1321.64 570.26L1323.32 567.26V560.91L1322.22 557.3L1318.38 550.64L1315.86 548.14L1314.09 547.21L1314.61 546.58L1314.75 544.08L1316.68 542.52L1319.68 541.52L1321.35 539.8L1322.14 538.8L1324.44 537.5L1324.27 533.26L1325.6 531.26L1327.53 529.26L1329.22 529.62L1329.91 527.62L1335.91 523.19L1338.7 526.13L1341.5 526.05L1347.43 522.49L1350.29 518.85L1356.29 511.66L1362.29 504.24L1363.78 499.76L1370.47 490.2L1372.47 479.32L1372.84 470.94L1376.32 463.77L1376.17 457.53L1369.75 449.28L1364.88 448.79L1362.03 452.57L1357.71 450.9L1355.53 446.12L1348.53 445.12L1365.53 426.41L1379.93 410.01L1394.54 407.44L1408.14 408.93L1413.64 404.64L1420.55 405.97L1420.23 412.24L1427.1 411.35L1437.02 409.1L1433.35 403.74L1444.47 388.55L1455.94 385.39L1459.59 396.72L1470.86 386.61L1473.53 378.81L1478.93 377.99L1475.36 391.27L1467.36 398.53L1459.71 407.62L1451.77 418.39L1444.86 420.27L1444.63 424.14L1440.88 429.02L1438.74 440.07L1441.22 456.98L1443.13 467.62L1444.77 472.52L1451.17 465.87L1452.51 458.46L1459.13 456.66L1460.68 448.08L1468.45 444.16L1466.6 440.81L1468.5 434.21L1472.63 433.92L1473.22 422.07L1468.16 420.21L1468 416.81L1473.33 408.52L1474.77 402.76L1480.71 403.97L1484.99 400.17L1486.99 403.47L1498.58 396.47L1504.93 402.65L1506.56 398.6L1513.02 393.04L1519.82 386.53L1523.82 385.44L1536.24 378.28L1544.52 380.37L1545.68 377.82L1545.16 373.82L1543.1 371.18L1540.46 362.92L1536.46 357.46L1542.22 358.22L1547.93 353.64V353.58V353.51L1550.45 349.02L1548.45 343.94L1553.78 341.36L1552.78 345.41L1555.19 349.16L1560.25 347.78L1564.76 349.52L1565.76 354.11L1571.68 357.16L1575.06 360.74L1579.23 361.05L1581 358.91L1581.12 348.66L1588.4 347.55L1592.67 342.65ZM809.65 411L806.82 413.52L804.82 414.37H803.17L803.52 412.06L803.45 411.17L804.23 410.53L805.69 410.18L806.44 409.02L808.2 407.22L809.92 408.36V409.36L809.65 411ZM893.65 397.09L892.65 396.62L892.58 399.54L888.65 399.3L887.81 402.12L886.01 402.05V400.1L883.45 395.75L883.31 393.81L880.31 390.3L884.83 385.18L892.27 391.29L894.12 395.63L893.65 397.09ZM908.29 392.24L904.92 392.85L902.77 391.31H904.28L905.93 391.57L904.07 388.72L902.73 387.25L901.08 384.3L900.08 380.96L900.2 380.21L901.87 380.86L901.69 378.73L902.62 380.22L903.71 381.71L904.32 381.21L905.41 380.61L904 378.45L901.67 375.8L903.36 375.93L904.42 376.64L906.56 380.44L908.07 385.78L909.56 389.88L908.29 392.24ZM885.66 776L884.66 775.06L883.14 774.7L883.6 772.98L882.31 771.79L881.73 769.32L879.02 766.88L877.49 763.68L878.29 761.8L877.09 759.29L877.88 752.16L879.54 756.46L879.3 758.58L880.15 759.23L880 761.13L880.86 762.89L879.86 764.6L883.45 767.6L883.78 770.37L886.38 775.71L885.66 776ZM913.31 682L914.53 682.34L914.37 683.86L913.72 684.37L912.87 683.75L912.3 682.9L913.31 682ZM901.23 781.6L901.6 786.36L903.06 788.08L902 792.45L902.77 798.29L903.61 798.48L904.52 800.93L904.41 801.49L902.83 799.71L902.06 800.86L901.35 799.86V798.14L900.35 796.79V794.79L899 791.48L900.29 788.96L900.01 783.5L898.44 780.58L898.84 779.2L901.23 781.6ZM894 736.42L895.9 735.36L898.2 736.24L899.47 738.24L899.19 741.54L897 743.54L895.54 745.54L897.3 747.07L894.76 748.16L894.21 747.64L891.64 747.91L889.64 748.91L888.4 747.19L889.24 744.08L889.37 741.4L889.15 739.68L891.15 737.08L894 736.42ZM987.12 538.85L982.93 537.41L981.93 542.33L984.93 542.68L983.79 546.62L987.26 548.62L986.61 554.55L987.44 558.55L987.01 559.86L980.07 561.32L973.75 560.32L970.67 557.52L966.45 556.36L965.04 552.2L964.93 549.39L966.55 548.05L967.32 546.05L968.09 541.55L971.75 541.08L970.39 539.51L968.31 539.23L966.05 535.06L963.71 531.93L958.86 524.85L959.3 520.73L955.3 514.85L959.72 508.35L964.03 507.35L966.03 503.55L970.18 502.2L975.33 499.34L979.1 500.93L983.55 500.62L984.34 504.62L983.54 510.83L979.66 509.89L975.88 510.89L975.71 515.48L971.39 514.89L971.53 516.89L973.99 518.46L975.99 523.97L981.14 526.04L981.98 528.14L980.89 530.64L981.14 532.1L982.53 535.94L982.98 531.59L986.56 530.06L987.83 533.48L991.07 537.02L987.12 538.85ZM1014.69 517L1013.43 517.65L1010.29 516.35L1011.55 512.42V511.21L1009.78 510.04L1009.61 511.77V514L1007.72 517.27L1006.78 515.64V513L1008.58 509.17L1008.98 506.71L1010.86 506.37L1012.34 507.87L1012.44 504.03L1013.38 504.36L1014.95 505.36V506.7L1014.17 507.2L1013.7 509.03L1014.95 508.7L1015.47 513.7L1014.69 517ZM1098.41 503.69L1096.41 504.16L1090.9 503.52L1083.81 502.81L1083.16 501.74L1082.9 503.04L1080.7 503.46L1080.08 505.37L1077.89 506.04L1077.1 512.48L1074.15 508.56V507.3L1075.47 505.98L1075.21 504.89L1076.73 504.75L1077.05 503.32L1080.81 500.8L1086.43 501.04L1090.77 501.93H1093.77L1095.71 503.09L1096.16 501.87L1098.8 501.28L1099.93 501.95L1098.41 503.69ZM1235.34 443L1235.16 445L1234.36 447.91L1233.65 451.84L1233.21 453.35L1232.21 452.15L1230.43 454.69L1231.32 455.14L1231.14 456.48L1229.81 456.92L1228.57 459.43L1226.88 461.04L1224.74 462.21L1221.74 462.94L1219.34 464.94L1217.74 466.94L1215.52 468.66L1213.65 469.08L1211.34 468.8L1208.94 468.08L1208.32 467.08L1209.39 466.22H1211.79L1214.72 465.22L1216.59 463.22L1218.81 461.47L1220.05 460.74L1221.47 459.42L1221.3 458.42L1223.7 456.65L1224.7 455.16L1226.04 454.11L1228.04 451.56L1229.55 448.56L1232.55 442.65L1233.17 438.65L1234.56 437.12L1236.44 437.26L1235.34 443Z"/>
    <path d="M1593.64 369.16L1590.05 366.52L1587.28 367.55L1584.53 365.64L1584.27 369.4L1585.33 370.28L1589.25 369.7L1590.94 371.5L1594.32 373.63L1597.69 371.55L1598.06 370.47L1593.64 369.16Z"/>
  </g>

    <!--pattern for filling-->
    <pattern id="Pattern" width="8" height="8"
        patternUnits="userSpaceOnUse">
      <circle cx="4" cy="4" r="2.5" fill="white"/>
    </pattern>
    <!--mask by paint area-->
    <mask id="Mask" maskUnits="userSpaceOnUse">
      <use xlink:href="#Base" fill="url(#Dots)" stroke="none" stroke-width="0" filter="url(#Range)"/>
    </mask>
  </defs>
  <use xlink:href="#Base" fill="none" stroke="none"/>
  <!--fill all screen by pattern and mask by paint area-->
  <rect fill="url(#Pattern)" width="100%" height="100%" mask="url(#Mask)"/>
</svg>