<svg width="52" height="43" viewBox="0 0 52 43" fill="currentColor" xmlns="http://www.w3.org/2000/svg">
  <g clip-path="url(#clip0)">
    <rect width="1680" height="10309" transform="translate(-528 -2646)" fill="none" />
    <path d="M51.5627 -43C27.8314 -43 8.59332 -23.7482 8.59332 0C8.59332 0.996365 8.62715 1.98481 8.69379 2.96426C8.81537 8.68876 8.93578 21.3036 7.86646 28.1572C7.02185 33.5706 3.31235 37.8323 0.466309 40.384C-0.475967 41.2288 0.104385 42.9031 1.36163 42.7619C6.74326 42.1574 16.2105 40.254 24.3495 34.2719C24.5677 34.1115 24.7731 33.9458 24.966 33.7751C32.2819 39.5523 41.52 43 51.5627 43H208.031C231.762 43 251 23.7482 251 0C251 -23.7482 231.762 -43 208.031 -43H51.5627Z" fill="url(#paint0_linear)" />
    <path d="M51.5627 -43C27.8314 -43 8.59332 -23.7482 8.59332 0C8.59332 0.996365 8.62715 1.98481 8.69379 2.96426C8.81537 8.68876 8.93578 21.3036 7.86646 28.1572C7.02185 33.5706 3.31235 37.8323 0.466309 40.384C-0.475967 41.2288 0.104385 42.9031 1.36163 42.7619C6.74326 42.1574 16.2105 40.254 24.3495 34.2719C24.5677 34.1115 24.7731 33.9458 24.966 33.7751C32.2819 39.5523 41.52 43 51.5627 43H208.031C231.762 43 251 23.7482 251 0C251 -23.7482 231.762 -43 208.031 -43H51.5627Z" fill="currentColor" />
    <path d="M62.8 11L60.976 5.944H52.048L50.192 11H46.48L55.184 -11.304H57.84L66.544 11H62.8ZM53.168 2.84H59.856L56.528 -6.312L53.168 2.84ZM76.1238 11.384C74.6944 11.384 73.3824 11.1173 72.1878 10.584C70.9931 10.0293 70.0118 9.26133 69.2438 8.28C68.4971 7.27733 68.0171 6.12533 67.8038 4.824L71.2278 3.992C71.3771 5.35733 71.8891 6.424 72.7638 7.192C73.6598 7.96 74.8011 8.344 76.1878 8.344C77.4464 8.344 78.4384 8.04533 79.1638 7.448C79.8891 6.85067 80.2518 6.04 80.2518 5.016C80.2518 4.09867 79.8998 3.33067 79.1958 2.712C78.5131 2.09333 77.2864 1.44267 75.5158 0.759999C73.9584 0.162666 72.7318 -0.434667 71.8358 -1.032C70.9398 -1.65067 70.2891 -2.33333 69.8838 -3.08C69.4784 -3.82667 69.2758 -4.73333 69.2758 -5.8C69.2758 -6.97333 69.5531 -8.008 70.1078 -8.904C70.6624 -9.8 71.4518 -10.4933 72.4758 -10.984C73.4998 -11.4747 74.6731 -11.72 75.9958 -11.72C77.4891 -11.72 78.8011 -11.3893 79.9318 -10.728C81.0624 -10.0667 81.9691 -9.096 82.6518 -7.816L79.8038 -6.056C79.3984 -6.888 78.8544 -7.528 78.1718 -7.976C77.4891 -8.44533 76.7318 -8.68 75.8998 -8.68C74.9824 -8.68 74.2144 -8.40267 73.5958 -7.848C72.9984 -7.31467 72.6998 -6.664 72.6998 -5.896C72.6998 -5.08533 73.0304 -4.392 73.6918 -3.816C74.3744 -3.26133 75.5904 -2.65333 77.3398 -1.992C78.9611 -1.37333 80.2304 -0.744 81.1478 -0.104C82.0651 0.514666 82.7158 1.208 83.0998 1.976C83.4838 2.744 83.6758 3.66133 83.6758 4.728C83.6758 6.05067 83.3664 7.224 82.7478 8.248C82.1291 9.25067 81.2438 10.0293 80.0918 10.584C78.9611 11.1173 77.6384 11.384 76.1238 11.384ZM87.979 -11.304H91.403V11H87.979V-11.304ZM106.629 11.416C104.474 11.416 102.597 10.9467 100.997 10.008C99.4181 9.06933 98.1914 7.736 97.3168 6.008C96.4634 4.25867 96.0368 2.2 96.0368 -0.168C96.0368 -2.536 96.4634 -4.584 97.3168 -6.312C98.1914 -8.06133 99.4288 -9.40533 101.029 -10.344C102.65 -11.2827 104.538 -11.752 106.693 -11.752C109.018 -11.752 111.002 -11.208 112.645 -10.12C114.309 -9.032 115.546 -7.44267 116.357 -5.352L113.189 -4.136C112.655 -5.58667 111.845 -6.67467 110.757 -7.4C109.669 -8.12533 108.314 -8.488 106.693 -8.488C104.389 -8.488 102.607 -7.76267 101.349 -6.312C100.09 -4.88267 99.4608 -2.84533 99.4608 -0.200001C99.4608 2.46667 100.09 4.52533 101.349 5.976C102.607 7.42667 104.367 8.152 106.629 8.152C108.25 8.152 109.615 7.77867 110.725 7.032C111.834 6.28533 112.655 5.176 113.189 3.704L116.421 4.92C115.61 7.032 114.362 8.64267 112.677 9.752C110.991 10.8613 108.975 11.416 106.629 11.416ZM119.649 0.183999H128.641V2.648H119.649V0.183999ZM131.288 -2.12V-4.776H134.424V-6.792C134.424 -8.54133 134.84 -9.77867 135.672 -10.504C136.504 -11.2293 137.592 -11.592 138.936 -11.592C139.96 -11.592 140.931 -11.3893 141.848 -10.984L140.76 -8.424C140.269 -8.70133 139.779 -8.84 139.288 -8.84C138.691 -8.84 138.275 -8.648 138.04 -8.264C137.805 -7.88 137.688 -7.41067 137.688 -6.856V-4.776H141.656V-2.12H137.688V11H134.392V-2.12H131.288ZM149.852 -5.064C151.9 -5.064 153.511 -4.52 154.684 -3.432C155.857 -2.344 156.444 -0.84 156.444 1.08V11H153.436L153.18 8.76C152.668 9.57067 151.964 10.2 151.068 10.648C150.193 11.0747 149.201 11.288 148.092 11.288C146.407 11.288 145.052 10.8293 144.028 9.912C143.004 8.99467 142.492 7.77867 142.492 6.264C142.492 5.368 142.673 4.6 143.036 3.96C143.42 3.29867 143.964 2.78667 144.668 2.424C145.735 1.89067 147.335 1.624 149.468 1.624H153.148V1.08C153.148 0.0559998 152.849 -0.744 152.252 -1.32C151.676 -1.896 150.865 -2.184 149.82 -2.184C148.049 -2.184 146.567 -1.36267 145.372 0.28L142.972 -1.736C144.785 -3.95467 147.079 -5.064 149.852 -5.064ZM148.7 8.504C149.98 8.504 151.036 8.09867 151.868 7.288C152.721 6.47733 153.148 5.45333 153.148 4.216V4.152H149.852C148.935 4.152 148.22 4.20533 147.708 4.312C147.196 4.39733 146.791 4.55733 146.492 4.792C146.023 5.112 145.788 5.624 145.788 6.328C145.788 6.98933 146.044 7.52267 146.556 7.928C147.089 8.312 147.804 8.504 148.7 8.504ZM168.613 -5.064C169.658 -5.064 170.629 -4.79733 171.525 -4.264L169.925 -1.384C169.306 -1.74667 168.655 -1.928 167.973 -1.928C166.778 -1.928 165.85 -1.53333 165.189 -0.744C164.549 0.0453329 164.229 1.21867 164.229 2.776V11H160.933V-4.776H164.261V-2.184C164.645 -3.12267 165.231 -3.83733 166.021 -4.328C166.831 -4.81867 167.695 -5.064 168.613 -5.064ZM191.117 -5.064C192.93 -5.064 194.285 -4.49867 195.181 -3.368C196.098 -2.23733 196.557 -0.776001 196.557 1.016V11H193.261V1.976C193.261 0.888 193.079 -0.0720002 192.717 -0.904C192.354 -1.75733 191.554 -2.184 190.317 -2.184C189.314 -2.184 188.557 -1.87467 188.045 -1.256C187.554 -0.658667 187.234 0.109333 187.085 1.048C186.957 1.96533 186.893 3.10667 186.893 4.472V11H183.597V2.04C183.597 -0.776001 182.615 -2.184 180.653 -2.184C179.671 -2.184 178.925 -1.87467 178.413 -1.256C177.922 -0.658667 177.602 0.109333 177.453 1.048C177.325 1.96533 177.261 3.10667 177.261 4.472V11H173.965L173.933 -4.776H177.101V-2.792C178.018 -4.30667 179.447 -5.064 181.389 -5.064C182.413 -5.064 183.33 -4.81867 184.141 -4.328C184.951 -3.83733 185.57 -3.048 185.997 -1.96C187.085 -4.02933 188.791 -5.064 191.117 -5.064ZM205.985 11.288C204.385 11.288 202.988 10.8827 201.793 10.072C200.598 9.26133 199.809 8.22667 199.425 6.968L202.081 5.784C202.358 6.552 202.796 7.20267 203.393 7.736C204.012 8.248 204.833 8.504 205.857 8.504C206.753 8.504 207.457 8.30133 207.969 7.896C208.481 7.46933 208.737 6.95733 208.737 6.36C208.737 5.76267 208.47 5.31467 207.937 5.016C207.404 4.71733 206.572 4.42933 205.441 4.152C204.353 3.85333 203.468 3.56533 202.785 3.288C202.102 2.98933 201.516 2.54133 201.025 1.944C200.534 1.32533 200.289 0.504 200.289 -0.52C200.289 -1.94933 200.822 -3.05867 201.889 -3.848C202.977 -4.65867 204.332 -5.064 205.953 -5.064C207.276 -5.064 208.438 -4.776 209.441 -4.2C210.444 -3.624 211.233 -2.792 211.809 -1.704L209.249 -0.296C208.481 -1.704 207.34 -2.408 205.825 -2.408C205.1 -2.408 204.513 -2.25867 204.065 -1.96C203.638 -1.66133 203.425 -1.26667 203.425 -0.776001C203.425 -0.242668 203.67 0.151999 204.161 0.407999C204.652 0.664 205.452 0.952 206.561 1.272C207.692 1.57067 208.609 1.88 209.313 2.2C210.038 2.49867 210.657 2.968 211.169 3.608C211.702 4.248 211.969 5.10133 211.969 6.168C211.969 7.27733 211.681 8.22667 211.105 9.016C210.55 9.784 209.814 10.36 208.897 10.744C208.001 11.1067 207.03 11.288 205.985 11.288Z" fill="currentColor" />
  </g>
  <defs>
    <linearGradient id="paint0_linear" x1="-2.4125e-05" y1="-43" x2="-2.4125e-05" y2="43" gradientUnits="userSpaceOnUse">
      <stop stop-color="currentColor" />
      <stop offset="1" />
    </linearGradient>
    <clipPath id="clip0">
      <rect width="1680" height="10309" fill="white" transform="translate(-528 -2646)" />
    </clipPath>
  </defs>
</svg>
